<?xml version="1.0" encoding="UTF-8"?>
<!-- Created with Inkscape (http://www.inkscape.org/) -->
<svg width="420mm" height="297mm" version="1.1" viewBox="0 0 420 297" xmlns="http://www.w3.org/2000/svg" xmlns:cc="http://creativecommons.org/ns#" xmlns:dc="http://purl.org/dc/elements/1.1/" xmlns:rdf="http://www.w3.org/1999/02/22-rdf-syntax-ns#">
 <defs>
  <clipPath>
   <path d="m5294.7 0h7500v5e3h-7500z"/>
  </clipPath>
  <clipPath>
   <path d="m12795 0h-7500v5e3h5738.2l-115.6-200.28 248-429.62h496.1l248 429.62-115.6 200.28h1000.9v-5e3m-7114.2 1196-313.67-543.28 313.67-543.3h627.33l313.66 543.3-313.66 543.28h-627.33m6150.5 291.79-313.7-543.28 313.7-543.29h627.3l313.7 543.29-313.7 543.28h-627.3m-5177.7 266.49-313.66-543.28 313.66-543.29h627.34l313.66 543.29-313.66 543.28h-627.34m-964.1 533.29-305.01-528.28 305.01-528.29h610.01l305 528.29-305 528.28h-610.01m4874.2 763.59v-67.25h449.3v190.08h-50.7l177.1 306.79-248 429.61h-496.1l-248-429.61 248-429.62h168.4m1333.2 869.23-248-429.6 248-429.63h496.1l248 429.63-248 429.6h-496.1m-742.6 419.6-239.4-414.6 239.4-414.62h478.7l239.4 414.62-239.4 414.6h-478.7m-4407.9 158.34-248.02-429.61 248.02-429.62h496.08l248.03 429.62-248.03 429.61h-496.08m3648.9 291.28-248-429.61 248-429.61h496.1l248 429.61-248 429.61h-496.1m-2891 167.05-239.37-414.6 239.37-414.62h478.75l239.38 414.62-239.38 414.6h-478.75m-1213.4-4817.2h-592.69l-296.35 513.3 296.35 513.27h592.69l296.35-513.27-296.35-513.3m6150.5 291.8h-592.7l-296.3 513.29 296.3 513.28h592.7l296.4-513.28-296.4-513.29m-5177.7 266.49h-592.69l-296.34 513.29 296.34 513.28h592.69l296.35-513.28-296.35-513.29m3300.1 2383.5h-151.1l-230.7 399.62 230.7 399.61h461.5l230.7-399.61-177.1-306.79h-364v-92.83m1812 10h-461.4l-230.8 399.63 230.8 399.6h461.4l230.7-399.6-230.7-399.63m-5150.5 577.94h-461.42l-230.72 399.62 230.72 399.61h461.42l230.73-399.61-230.73-399.62m3648.9 291.29h-461.5l-230.7 399.61 230.7 399.61h461.5l230.7-399.61-230.7-399.61m770.3 439.7h-461.5l-230.7 399.62 115.7 200.28h691.5l115.7-200.28-230.7-399.62"/>
  </clipPath>
  <clipPath id="clipPath884">
   <path d="m6307.8 109.43h-627.33l-313.67 543.3 313.67 543.28h627.33l313.66-543.28-313.66-543.3m-610.01 1056.6-296.35-513.27 296.35-513.3h592.69l296.35 513.3-296.35 513.27h-592.69"/>
  </clipPath>
  <clipPath id="clipPath902">
   <path d="m7280.6 667.72h-627.34l-313.66 543.29 313.66 543.28h627.34l313.66-543.28-313.66-543.29m-610.02 1056.6-296.34-513.28 296.34-513.29h592.69l296.35 513.29-296.35 513.28h-592.69"/>
  </clipPath>
  <clipPath id="clipPath920">
   <path d="m6299.2 1231h-610.01l-305.01 528.29 305.01 528.28h610.01l305-528.28-305-528.29"/>
  </clipPath>
  <clipPath id="clipPath938">
   <path d="m10563 3051.2h-168.4l-248 429.62 248 429.61h496.1l248-429.61-177.1-306.79h-34.6l177.1 306.79-230.7 399.61h-461.5l-230.7-399.61 230.7-399.62h151.1v-30"/>
  </clipPath>
  <clipPath id="clipPath956">
   <path d="m11633 3510.8h-478.7l-239.4 414.62 239.4 414.6h478.7l239.4-414.6-239.4-414.62"/>
  </clipPath>
  <clipPath id="clipPath974">
   <path d="m10891 3930.4h-496.1l-248 429.61 248 429.61h496.1l248-429.61-248-429.61m-478.8 829.22-230.7-399.61 230.7-399.61h461.5l230.7 399.61-230.7 399.61h-461.5"/>
  </clipPath>
  <clipPath id="clipPath992">
   <path d="m12393 3061.2h-496.1l-248 429.63 248 429.6h496.1l248-429.6-248-429.63m-478.7 829.23-230.8-399.6 230.8-399.63h461.4l230.7 399.63-230.7 399.6h-461.4"/>
  </clipPath>
  <clipPath id="clipPath1010">
   <path d="m11661 4370.1h-496.1l-248 429.62 115.6 200.28h34.7l-115.7-200.28 230.7-399.62h461.5l230.7 399.62-115.7 200.28h34.7l115.6-200.28-248-429.62"/>
  </clipPath>
  <clipPath id="clipPath1028">
   <path d="m7242.2 3639.1h-496.08l-248.02 429.62 248.02 429.61h496.08l248.03-429.61-248.03-429.62m-478.75 829.23-230.72-399.61 230.72-399.62h461.42l230.73 399.62-230.73 399.61h-461.42"/>
  </clipPath>
  <clipPath id="clipPath1046">
   <path d="m12458 401.23h-627.3l-313.7 543.29 313.7 543.28h627.3l313.7-543.28-313.7-543.29m-610 1056.6-296.3-513.28 296.3-513.29h592.7l296.4 513.29-296.4 513.28h-592.7"/>
  </clipPath>
  <clipPath id="clipPath1064">
   <path d="m7982.7 4127.4h-478.75l-239.37 414.62 239.37 414.6h478.75l239.38-414.6-239.38-414.62"/>
  </clipPath>
  <clipPath id="clipPath1082">
   <path d="m5294.7 0h7500v5e3h-7500z"/>
  </clipPath>
  <clipPath id="clipPath1136">
   <path d="m11013 2983.9h-449.3v67.25h327.7l70.9 122.83h50.7v-190.08m-138.9 97.25h-310.4v92.83h364l-53.6-92.83"/>
  </clipPath>
  <clipPath>
   <path d="m10563 2983.9h449.3v190.08h-449.3z"/>
  </clipPath>
  <clipPath id="clipPath1160">
   <path d="m11013 2983.9h-449.3v67.25h327.7l70.9 122.83h50.7v-190.08m-138.9 97.25h-310.4v92.83h364l-53.6-92.83"/>
  </clipPath>
  <clipPath>
   <path d="m10576 3137.8s22.1 11.88 42.9 11.88c26.2 0 34-19.7 34-33.47 0-32.12-35.9-65.06-89.1-116.34l3-14.85h110.1l-1.6 14.85h-88c46.2 43.19 83.7 74.5 83.7 117.42 0 36.17-27.3 47.51-50.5 47.51-25.9 0-51.3-14.31-51.3-14.31zm143.3-60.46c0 50.2 25.4 78.55 53.2 78.55s53.2-23.76 53.2-78.55c0-50.48-25.4-78.55-53.2-78.55s-53.2 22.13-53.2 78.55zm-18.3 0c0-66.94 33.5-93.4 71.5-93.4 38.1 0 71.5 33.75 71.5 93.4 0 65.05-33.4 93.39-71.5 93.39-38 0-71.5-33.74-71.5-93.39zm203.3-92.32v85.57h91.8v-85.57h17v188.95h-17v-87.18h-91.8v87.18h-17v-188.95z"/>
  </clipPath>
  <clipPath id="clipPath1184">
   <path d="m10891 3051.2h-327.7v30h310.4l53.6 92.83h34.6l-70.9-122.83"/>
  </clipPath>
  <clipPath id="clipPath1190">
   <path d="m10563 3051.2h398.6v122.83h-398.6z"/>
  </clipPath>
  <clipPath id="clipPath1208">
   <path d="m10891 3051.2h-327.7v30h310.4l53.6 92.83h34.6l-70.9-122.83"/>
  </clipPath>
  <clipPath>
   <path d="m10576 3137.8s22.1 11.88 42.9 11.88c26.2 0 34-19.7 34-33.47 0-32.12-35.9-65.06-89.1-116.34l3-14.85h110.1l-1.6 14.85h-88c46.2 43.19 83.7 74.5 83.7 117.42 0 36.17-27.3 47.51-50.5 47.51-25.9 0-51.3-14.31-51.3-14.31zm143.3-60.46c0 50.2 25.4 78.55 53.2 78.55s53.2-23.76 53.2-78.55c0-50.48-25.4-78.55-53.2-78.55s-53.2 22.13-53.2 78.55zm-18.3 0c0-66.94 33.5-93.4 71.5-93.4 38.1 0 71.5 33.75 71.5 93.4 0 65.05-33.4 93.39-71.5 93.39-38 0-71.5-33.74-71.5-93.39zm203.3-92.32v85.57h91.8v-85.57h17v188.95h-17v-87.18h-91.8v87.18h-17v-188.95z"/>
  </clipPath>
  <clipPath>
   <path d="m0 0h5e3v5e3h-5e3z"/>
  </clipPath>
  <clipPath>
   <path d="m5e3 0h-5e3v109.43h563.17l313.66 543.3-313.66 543.28h-563.17v35h554.51l305 528.29-305 528.28h-554.51v2712.4h3888.2l-115.63-200.28 248.04-429.62h496.07l248.04 429.62-115.64 200.28h350.88v-1079.6h-248.04l-248.03-429.6 248.03-429.63h248.04v-1999.3l-245.9 425.91h-627.34l-313.67-543.28 313.67-543.29h627.34l245.9 425.92v-827.15m-4091.4 1754.3-313.66-543.28 313.66-543.29h627.34l313.66 543.29-313.66 543.28h-627.34m3110.2 1419.7v-190.08h449.28v190.08h-449.28m-768.41 736.4-248.04-429.61 248.04-429.62h496.07l248.04 429.62-248.04 429.61h-496.07m758.95 429.6-239.37-414.6 239.37-414.62h478.76l239.37 414.62-239.37 414.6h-478.76m-3507.8 158.34-248.03-429.61 248.03-429.62h496.07l248.04 429.62-248.04 429.61h-496.07m2748.9 291.28-248.04-429.61 248.04-429.61h496.08l248.03 429.61-248.03 429.61h-496.08m-1991 167.05-239.38-414.6 239.38-414.62h478.75l239.37 414.62-239.37 414.6h-478.75m-713.46-4817.2h-545.85v1026.6h545.85l296.35-513.27-296.35-513.3m4190.9 291.8h-592.7l-296.35 513.29 296.35 513.28h592.7l263.22-455.92v-114.72l-263.22-455.93m-3218.2 266.49h-592.68l-296.34 513.29 296.34 513.28h592.68l296.35-513.28-296.35-513.29m2210.5 2383.5h-461.43l-230.71 399.62 230.71 399.61h461.43l230.72-399.61-230.72-399.62m1270.9 10h-230.71l-230.72 399.63 230.72 399.6h230.71v-799.23m-4019.8 577.94h-461.43l-230.72 399.62 230.72 399.61h461.43l230.72-399.61-230.72-399.62m2748.9 291.29h-461.44l-230.71 399.61 230.71 399.61h461.44l230.71-399.61-230.71-399.61m770.29 439.7h-461.43l-230.71 399.62 115.63 200.28h691.58l115.64-200.28-230.71-399.62"/>
  </clipPath>
  <clipPath>
   <path d="m563.17 109.43h-563.17v30h545.85l296.35 513.3-296.35 513.27h-545.85v30.01h563.17l313.66-543.28-313.66-543.3"/>
  </clipPath>
  <clipPath>
   <path d="m1535.9 667.72h-627.34l-313.66 543.29 313.66 543.28h627.34l313.66-543.28-313.66-543.29m-610.01 1056.6-296.34-513.28 296.34-513.29h592.68l296.35 513.29-296.35 513.28h-592.68"/>
  </clipPath>
  <clipPath>
   <path d="m554.51 1231h-554.51v1056.6h554.51l305-528.28-305-528.29"/>
  </clipPath>
  <clipPath>
   <path d="m3746.4 3051.2h-496.07l-248.04 429.62 248.04 429.61h496.07l248.04-429.61-248.04-429.62m-478.75 829.23-230.71-399.61 230.71-399.62h461.43l230.72 399.62-230.72 399.61h-461.43"/>
  </clipPath>
  <clipPath>
   <path d="m4488.1 3510.8h-478.76l-239.37 414.62 239.37 414.6h478.76l239.37-414.6-239.37-414.62"/>
  </clipPath>
  <clipPath>
   <path d="m3746.4 3930.4h-496.08l-248.04 429.61 248.04 429.61h496.08l248.03-429.61-248.03-429.61m-478.76 829.22-230.71-399.61 230.71-399.61h461.44l230.71 399.61-230.71 399.61h-461.44"/>
  </clipPath>
  <clipPath>
   <path d="m5e3 3061.2h-248.04l-248.03 429.63 248.03 429.6h248.04v-30h-230.71l-230.72-399.6 230.72-399.63h230.71v-30"/>
  </clipPath>
  <clipPath>
   <path d="m4516.7 4370.1h-496.07l-248.04 429.62 115.63 200.28h34.65l-115.63-200.28 230.71-399.62h461.43l230.71 399.62-115.64 200.28h34.65l115.64-200.28-248.04-429.62"/>
  </clipPath>
  <clipPath>
   <path d="m997.54 3639.1h-496.07l-248.03 429.62 248.03 429.61h496.07l248.04-429.61-248.04-429.62m-478.75 829.23-230.72-399.61 230.72-399.62h461.43l230.72 399.62-230.72 399.61h-461.43"/>
  </clipPath>
  <clipPath>
   <path d="m4754.1 401.23h-627.34l-313.67 543.29 313.67 543.28h627.34l245.9-425.91v-60.01l-263.22 455.92h-592.7l-296.35-513.28 296.35-513.29h592.7l263.22 455.93v-60.012l-245.9-425.92"/>
  </clipPath>
  <clipPath>
   <path d="m1738.1 4127.4h-478.75l-239.38 414.62 239.38 414.6h478.75l239.37-414.6-239.37-414.62"/>
  </clipPath>
  <clipPath id="clipPath1466">
   <path d="m0 0h5e3v5e3h-5e3z"/>
  </clipPath>
  <clipPath>
   <path d="m4018.8 2983.9h449.28v190.08h-449.28z"/>
  </clipPath>
  <clipPath>
   <path d="m4030.9 3137.8s22.14 11.88 42.92 11.88c26.18 0 34.01-19.7 34.01-33.47 0-32.12-35.9-65.06-89.08-116.34l2.97-14.85h110.14l-1.63 14.85h-87.99c46.15 43.19 83.67 74.5 83.67 117.42 0 36.17-27.26 47.51-50.47 47.51-25.91 0-51.29-14.31-51.29-14.31zm143.37-60.46c0 50.2 25.37 78.55 53.18 78.55 27.8 0 53.17-23.76 53.17-78.55 0-50.48-25.37-78.55-53.17-78.55-27.81 0-53.18 22.13-53.18 78.55zm-18.36 0c0-66.94 33.47-93.4 71.54-93.4 38.06 0 71.52 33.75 71.52 93.4 0 65.05-33.46 93.39-71.52 93.39-38.07 0-71.54-33.74-71.54-93.39zm203.31-92.32v85.57h91.78v-85.57h17v188.95h-17v-87.18h-91.78v87.18h-17v-188.95z"/>
  </clipPath>
 </defs>
 <metadata>
  <rdf:RDF>
   <cc:Work rdf:about="">
    <dc:format>image/svg+xml</dc:format>
    <dc:type rdf:resource="http://purl.org/dc/dcmitype/StillImage"/>
    <dc:title/>
   </cc:Work>
  </rdf:RDF>
 </metadata>
 <g transform="matrix(.55898 0 0 -.59468 -295.01 297.66)">
  <g transform="scale(.1)">
   <g clip-path="url(#clipPath884)">
    <path d="m6307.8 109.43h-627.33l-313.67 543.3 313.67 543.28h627.33l313.66-543.28-313.66-543.3m-610.01 1056.6-296.35-513.27 296.35-513.3h592.69l296.35 513.3-296.35 513.27h-592.69"/>
   </g>
   <g clip-path="url(#clipPath902)">
    <path d="m7280.6 667.72h-627.34l-313.66 543.29 313.66 543.28h627.34l313.66-543.28-313.66-543.29m-610.02 1056.6-296.34-513.28 296.34-513.29h592.69l296.35 513.29-296.35 513.28h-592.69"/>
   </g>
   <g clip-path="url(#clipPath920)">
    <path d="m6299.2 1231h-610.01l-305.01 528.29 305.01 528.28h610.01l305-528.28-305-528.29"/>
   </g>
   <g clip-path="url(#clipPath938)">
    <path d="m10563 3051.2h-168.4l-248 429.62 248 429.61h496.1l248-429.61-177.1-306.79h-34.6l177.1 306.79-230.7 399.61h-461.5l-230.7-399.61 230.7-399.62h151.1v-30"/>
   </g>
   <g clip-path="url(#clipPath956)">
    <path d="m11633 3510.8h-478.7l-239.4 414.62 239.4 414.6h478.7l239.4-414.6-239.4-414.62"/>
   </g>
   <g clip-path="url(#clipPath974)">
    <path d="m10891 3930.4h-496.1l-248 429.61 248 429.61h496.1l248-429.61-248-429.61m-478.8 829.22-230.7-399.61 230.7-399.61h461.5l230.7 399.61-230.7 399.61h-461.5"/>
   </g>
   <g clip-path="url(#clipPath992)">
    <path d="m12393 3061.2h-496.1l-248 429.63 248 429.6h496.1l248-429.6-248-429.63m-478.7 829.23-230.8-399.6 230.8-399.63h461.4l230.7 399.63-230.7 399.6h-461.4"/>
   </g>
   <g clip-path="url(#clipPath1010)">
    <path d="m11661 4370.1h-496.1l-248 429.62 115.6 200.28h34.7l-115.7-200.28 230.7-399.62h461.5l230.7 399.62-115.7 200.28h34.7l115.6-200.28-248-429.62"/>
   </g>
   <g clip-path="url(#clipPath1028)">
    <path d="m7242.2 3639.1h-496.08l-248.02 429.62 248.02 429.61h496.08l248.03-429.61-248.03-429.62m-478.75 829.23-230.72-399.61 230.72-399.62h461.42l230.73 399.62-230.73 399.61h-461.42"/>
   </g>
   <g clip-path="url(#clipPath1046)">
    <path d="m12458 401.23h-627.3l-313.7 543.29 313.7 543.28h627.3l313.7-543.28-313.7-543.29m-610 1056.6-296.3-513.28 296.3-513.29h592.7l296.4 513.29-296.4 513.28h-592.7"/>
   </g>
   <g clip-path="url(#clipPath1064)">
    <path d="m7982.7 4127.4h-478.75l-239.37 414.62 239.37 414.6h478.75l239.38-414.6-239.38-414.62"/>
   </g>
   <g clip-path="url(#clipPath1082)">
    <path d="m11337 39.629c-5.8 3.0899-12.4 5.0117-19.5 5.0117-20.7 0-37.8-14.961-41.4-34.641h-200.8c-5.3 27.059-29.1 47.5-57.7 47.5-3.5 0-7-0.3711-10.3-0.9805l-102.3 177.09c5.3 7.032 8.5 15.692 8.5 25.161 0 8.98-2.8 17.281-7.6 24.121l101.6 176.05c4.1-0.882 8.2-1.382 12.6-1.382 28.5 0 52.3 20.433 57.6 47.48h199.4c4.9-17.777 21-30.898 40.4-30.898 6.4 0 12.4 1.55 17.9 4.121l97.9-169.52c-15.7-10.558-26-28.437-26-48.707 0-21.179 11.3-39.679 28.1-50.011zm-449.6 258.1c-5 2.04-10.3 3.192-16 3.192-20.3 0-37.2-14.34-41.2-33.41h-201c-5.3 27.047-29.1 47.488-57.7 47.488-4.7 0-9.4-0.629-13.8-1.711l-101.1 175.05c6.7 7.449 10.8 17.172 10.8 27.93 0 10.281-3.8 19.589-9.9 26.902l100.5 174.14c5.1-1.43 10.4-2.25 16-2.25 28.5 0 52.3 20.433 57.6 47.492h199.4c4.9-17.781 21-30.91 40.4-30.91 4 0 7.8 0.738 11.5 1.789l99.4-172.2c-12.8-10.769-21-26.898-21-44.941 0-19.719 9.8-37.117 24.7-47.758zm-439.3 706.75c5.8 7.2 9.3 16.19 9.3 26.11 0 11.14-4.4 21.21-11.4 28.75l98 169.85c6.3-2.26 12.9-3.55 20-3.55 31.4 0 56.9 24.66 58.5 55.67h211c2.4-21.09 20-37.55 41.7-37.55 2.1 0 4.1 0.32 6.1 0.61l96-166.36c-11.3-10.71-18.4-25.81-18.4-42.6 0-17.38 7.6-32.96 19.6-43.711l-101.8-176.3c-1.7 0.223-3.5 0.543-5.3 0.543-18.9 0-34.7-12.531-40.1-29.66h-200c-5.7 26.43-29.2 46.239-57.3 46.239-8.5 0-16.5-1.809-23.7-5zm-19 65.74c-4.4 1.52-9 2.51-13.8 2.51-18.6 0-34.3-12.17-39.8-28.94h-199.9c-5.7 26.43-29.2 46.25-57.3 46.25-5.5 0-10.7-0.8-15.7-2.18l-103.04 178.46c8.54 7.71 14.04 18.76 14.04 31.16 0 10.08-3.7 19.2-9.6 26.46l100.7 174.44c4.9-1.32 10-2.09 15.3-2.09 26.8 0 49.4 17.99 56.4 42.54h199.7c2.8-20.64 20.2-36.6 41.6-36.6 5.5 0 10.7 1.12 15.5 3.03l99-171.51c-16.2-10.45-27-28.64-27-49.38 0-18.24 8.3-34.53 21.4-45.3zm-348.4-84.029-97.54-168.95c-4.28 1.457-8.79 2.43-13.56 2.43-21.12 0-38.46-15.613-41.51-35.883h-195.99c-2.45 30.172-27.67 53.922-58.48 53.922-7.37 0-14.38-1.422-20.87-3.891l-99.42 172.2c9.78 7.71 16.17 19.53 16.17 32.95 0 11.76-4.84 22.38-12.6 30.02l97.35 168.64c5.48-1.68 11.3-2.6 17.33-2.6 27.26 0 50.12 18.6 56.73 43.8h205.48c6.91-13.88 21.08-23.5 37.62-23.5 1.94 0 3.8 0.31 5.66 0.57l103.63-179.47c-12.9-10.79-21.2-26.99-21.2-45.12 0-18.14 8.3-34.349 21.2-45.119zm-541.43-421.52c-4.49 1.629-9.27 2.66-14.33 2.66-21.62 0-39.24-16.352-41.66-37.332h-197.19c-2.45 30.18-27.68 53.922-58.49 53.922-8.03 0-15.67-1.633-22.65-4.551l-96.84 167.76c8.02 7.672 13.05 18.422 13.05 30.391 0 11.769-4.85 22.39-12.63 30.039l99.42 172.21c6.15-2.188 12.75-3.438 19.65-3.438 29.01 0 53.06 21.047 57.81 48.708h202.35c5.77-16.4 21.24-28.208 39.6-28.208 1.49 0 2.9 0.277 4.35 0.438l101.48-175.78c-11.25-10.699-18.3-25.769-18.3-42.519 0-18.418 8.49-34.848 21.77-45.617zm-460.25 255c-20.27 0-37.17-14.332-41.21-33.391h-201.25c-5.74 26.43-29.23 46.25-57.39 46.25-5.93 0-11.65-0.902-17.05-2.543l-100.12 173.42c8.01 7.67 13.06 18.42 13.06 30.39 0 11.96-5.05 22.71-13.06 30.39l99.34 172.06c6.32-2.32 13.12-3.66 20.24-3.66 29.03 0 53.06 21.06 57.83 48.73h198.79c4.5-18.43 21.01-32.15 40.82-32.15 4.06 0 7.92 0.76 11.64 1.84l98.87-171.27c-12.62-10.78-20.66-26.78-20.66-44.68 0-18.17 8.25-34.4 21.21-45.169l-99.34-172.08c-3.75 1.093-7.63 1.863-11.72 1.863zm-338.85-89.692-97.95-169.68c-3.75 1.09-7.63 1.859-11.72 1.859-19.8 0-36.31-13.73-40.82-32.148h-198.71c-4.75 27.66-28.8 48.726-57.81 48.726-7.13 0-13.93-1.34-20.26-3.656l-99.31 172.05c8 7.66 13.04 18.422 13.04 30.383 0 11.968-5.05 22.718-13.06 30.386l98.73 171.03c6.46-2.461 13.44-3.848 20.77-3.848 29.45 0 53.77 21.699 58.01 49.968h200.62c4.04-19.07 20.95-33.402 41.21-33.402 3.57 0 6.98 0.582 10.29 1.422l99.88-173.01c-13.76-10.75-22.64-27.45-22.64-46.258 0-17.449 7.66-33.071 19.73-43.821zm-540.68-428.22c-4.67 1.777-9.69 2.879-15 2.879-21.55 0-39.13-16.25-41.65-37.121h-200.01c-3.7 28.871-28.31 51.199-58.19 51.199-6.48 0-12.69-1.09-18.52-3.028l-99.13 171.7c9.53 7.73 15.75 19.39 15.75 32.609 0 11.402-4.57 21.711-11.93 29.301l99.65 172.6c5.88-1.976 12.16-3.089 18.71-3.089 27.25 0 50.1 18.582 56.73 43.75h199.3c6.04-15.868 21.3-27.2 39.29-27.2 3.51 0 6.88 0.563 10.15 1.383l99.71-172.73c-12.19-10.762-19.92-26.461-19.92-44 0-19.364 9.4-36.473 23.83-47.172zm-458.9 260.39c-19.8 0-36.3-13.718-40.82-32.128h-201.97c-6.21 25.789-29.35 44.992-57.05 44.992-5.71 0-11.21-0.864-16.42-2.371l-100.25 173.66c7.73 7.64 12.55 18.238 12.55 29.98 0 12.199-5.26 23.09-13.55 30.789l99.23 171.88c6.49-2.469 13.49-3.879 20.85-3.879 29.45 0 53.78 21.711 58 49.99h198.21c4.03-19.08 20.95-33.412 41.22-33.412 4.29 0 8.35 0.832 12.25 2.024l98.74-171.02c-12.92-10.781-21.14-26.992-21.14-45.113 0-18.141 8.22-34.34 21.14-45.109l-99.36-172.12c-3.71 1.082-7.57 1.839-11.63 1.839zm1812 959.74c9.01 7.73 14.85 19.07 14.85 31.87 0 10.97-4.29 20.88-11.17 28.38l99.96 173.14c5.6-1.76 11.56-2.73 17.74-2.73 27.27 0 50.12 18.6 56.74 43.8h201.39c6.05-15.88 21.3-27.22 39.3-27.22 3.25 0 6.38 0.45 9.41 1.14l99.38-172.14c-11.6-10.73-18.9-26.05-18.9-43.11 0-19.33 9.3-36.42 23.7-47.12l-98.74-171.1c-4.64 1.75-9.61 2.83-14.85 2.83-21.96 0-39.8-16.88-41.77-38.32h-199.87c-3.71 28.86-28.33 51.18-58.19 51.18-6.76 0-13.23-1.2-19.27-3.3zm996.3 230.78c8-4.05 17-6.37 26.5-6.37 29.5 0 53.8 21.74 58 50.05h187.3c6.3-15.25 21.4-25.98 38.9-25.98 4.1 0 8 0.77 11.8 1.88l99.6-172.55c-14.5-10.71-23.9-27.83-23.9-47.18 0-21.46 11.6-40.18 28.8-50.42l-100.5-174.05-0.2 0.01c-17.8 0-33-11.11-39.1-26.74h-215.9c-7.3 24.17-29.7 41.79-56.2 41.79-4.6 0-8.9-0.56-13.1-1.52l-101.3 175.47c6.3 7.37 10.2 16.84 10.2 27.31 0 12.16-5.2 23.03-13.4 30.73zm439.2 262.27c6.3-2.3 13.1-3.63 20.2-3.63 29 0 53 21.06 57.8 48.73h198.8c4.5-18.43 21-32.15 40.8-32.15 4.1 0 8 0.77 11.7 1.86l98.9-171.24c-12.7-10.78-20.7-26.8-20.7-44.73 0-18.39 8.4-34.8 21.7-45.57l-99.3-171.86c-3.9 1.2-8 2.04-12.3 2.04-20.3 0-37.2-14.33-41.2-33.39h-201.3c-5.7 26.44-29.2 46.25-57.3 46.25-5.2 0-10.1-0.72-14.9-1.97l-100.7 174.5c7 7.54 11.5 17.6 11.5 28.74 0 11.94-5.1 22.68-13.1 30.35zm10.7-1035.1c5.9-2.02 12.2-3.16 18.9-3.16 28.4 0 52.1 20.242 57.5 47.12h199.6c5-17.59 21.1-30.538 40.3-30.538 4 0 7.8 0.726 11.4 1.769l99-171.35c-12.6-10.77-20.6-26.711-20.6-44.532 0-18.878 9-35.617 22.8-46.367l-101.2-175.35c-2.9 0.629-5.9 1.011-9 1.011-18.9 0-34.7-12.543-40.1-29.679h-200c-5.7 26.437-29.2 46.258-57.3 46.258-6.1 0-11.9-0.918-17.3-2.598l-100.1 173.38c6.7 7.449 10.8 17.199 10.8 27.988 0 12.961-5.9 24.41-15.2 32.152zm467.3-661.08c-5 0-9.8-0.692-14.5-1.871l-100.5 174.18c5.3 7.051 8.5 15.719 8.5 25.219 0 12.992-6 24.453-15.2 32.191l101 174.89c5.7-1.902 11.9-2.949 18.3-2.949 32.4 0 58.7 26.289 58.7 58.726 0 32.434-26.3 58.731-58.7 58.731-7.5 0-14.5-1.43-21.1-3.949l-98.6 170.9c8.1 7.69 13.2 18.51 13.2 30.58 0 23.27-18.8 42.15-42.1 42.15-20.4 0-37.4-14.51-41.3-33.76h-198.1c-4.1 28.45-28.5 50.34-58 50.34-8.5 0-16.5-1.81-23.7-5.01l-94 162.81c10.5 7.67 17.4 19.97 17.4 33.97 0 15.93-9 29.64-22 36.8l99.4 172.16c3.6-0.69 7.3-1.08 11.1-1.08 29.9 0 54.5 22.33 58.2 51.21h201.2c4.9-17.78 21.1-30.91 40.4-30.91 23.3 0 42.2 18.87 42.2 42.15 0 11.74-4.9 22.34-12.6 29.99l99.4 172.24c6.1-2.18 12.7-3.42 19.6-3.42 32.4 0 58.7 26.29 58.7 58.73 0 32.43-26.3 58.73-58.7 58.73-7.3 0-14.3-1.41-20.8-3.86l-98.7 171c8 7.67 13.1 18.42 13.1 30.39 0 23.27-18.9 42.15-42.2 42.15-19.8 0-36.3-13.73-40.8-32.15h-198.8c-4.8 27.66-28.8 48.73-57.8 48.73-32.5 0-58.8-26.3-58.8-58.73 0-18.16 8.3-34.39 21.2-45.16l-99.3-172.09c-3.8 1.11-7.7 1.88-11.8 1.88-22 0-39.8-16.88-41.8-38.32h-184.8c-5.3 27.01-29.1 47.41-57.6 47.41-32.4 0-58.7-26.3-58.7-58.73 0-15.64 6.1-29.8 16.1-40.31l-103.9-179.9c-3.6 1-7.3 1.7-11.2 1.7-18.2 0-33.5-11.57-39.4-27.69h-199.8c-1.9 30.64-27.4 54.92-58.5 54.92-8.2 0-15.9-1.67-23-4.69l-98.34 170.31c9.04 7.73 14.94 19.08 14.94 31.91 0 23.27-18.92 42.15-42.19 42.15-21.53 0-39.1-16.22-41.64-37.08h-197.32c-2.57 30.06-27.74 53.66-58.47 53.66-32.44 0-58.73-26.3-58.73-58.73 0-19.09 9.15-36.01 23.26-46.73l-98.9-171.31c-4.48 1.63-9.26 2.67-14.3 2.67-23.28 0-42.15-18.88-42.15-42.15 0-23.28 18.87-42.15 42.15-42.15 3.27 0 6.41 0.46 9.47 1.16l100.03-173.25c-13.38-10.77-21.97-27.25-21.97-45.76 0-19.25 9.3-36.28 23.61-46.99l-96.81-167.68c-3.91 1.2-7.98 2.03-12.28 2.03-21.2 0-38.58-15.71-41.54-36.08h-200.4c-4.74 27.67-28.8 48.75-57.82 48.75-7.35 0-14.36-1.42-20.85-3.88l-98.7 170.97c8.05 7.67 13.11 18.44 13.11 30.44 0 23.27-18.87 42.15-42.14 42.15-19.81 0-36.32-13.73-40.82-32.15h-198.79c-4.77 27.65-28.81 48.73-57.83 48.73-32.43 0-58.73-26.3-58.73-58.73 0-18.14 8.24-34.34 21.15-45.11l-99.38-172.12c-3.74 1.09-7.62 1.86-11.71 1.86-19.34 0-35.49-13.13-40.44-30.9h-201.77c-5.26 27.05-29.05 47.49-57.63 47.49-32.43 0-58.73-26.3-58.73-58.73 0-17.94 8.06-33.97 20.73-44.74l-98.89-171.27c-3.73 1.101-7.6 1.859-11.69 1.859-21.55 0-39.13-16.238-41.65-37.101h-195.19c-2.56 30.082-27.74 53.711-58.48 53.711-7.13 0-13.92-1.34-20.24-3.661l-98.82 171.16c7.78 7.64 12.63 18.26 12.63 30.03 0 23.27-18.88 42.15-42.15 42.15-19.35 0-35.48-13.12-40.44-30.89h-199.37c-5.26 27.04-29.04 47.47-57.62 47.47-32.44 0-58.73-26.3-58.73-58.73 0-17.9 8.02-33.909 20.66-44.679l-99.51-172.36c-3.56 0.968-7.23 1.668-11.09 1.668-23.28 0-42.15-18.879-42.15-42.149 0-23.281 18.87-42.152 42.15-42.152 4.31 0 8.4 0.84 12.32 2.051l99.53-172.38c-14.72-10.68-24.32-27.961-24.32-47.52 0-32.441 26.29-58.73 58.73-58.73 30.32 0 55.26 22.98 58.38 52.469h200.63c4.5-18.438 21.01-32.168 40.83-32.168 2.86 0 5.63 0.296 8.33 0.839l99.58-172.48c-13.73-10.742-22.59-27.43-22.59-46.223 0-32.437 26.3-58.726 58.73-58.726 28.17 0 51.66 19.808 57.37 46.258h203.2c6.05-15.86 21.29-27.18 39.28-27.18 23.27 0 42.14 18.871 42.14 42.148 0 10.692-4.11 20.352-10.68 27.782l100.2 173.54c5.39-1.629 11.09-2.528 17.01-2.528 29.02 0 53.06 21.059 57.81 48.731h198.71c4.5-18.43 21.02-32.153 40.82-32.153 23.27 0 42.15 18.871 42.15 42.153 0 11.957-5.04 22.707-13.06 30.386l97.55 168.97c6.82-2.75 14.24-4.301 22.03-4.301 29.89 0 54.5 22.328 58.21 51.211h201.2c4.94-17.781 21.08-30.91 40.44-30.91 4.09 0 7.97 0.77 11.72 1.859l97.37-168.67c-11.79-10.739-19.24-26.168-19.24-43.368 0-32.453 26.3-58.73 58.73-58.73 27.17 0 49.97 18.469 56.68 43.539h201.45c6.11-15.75 21.31-26.961 39.21-26.961 23.28 0 42.15 18.859 42.15 42.152 0 10.95-4.28 20.848-11.15 28.348l98.19 170.08c6.11-2.152 12.65-3.383 19.49-3.383 27.17 0 49.98 18.481 56.68 43.551h199.63c5.73-16.5 21.23-28.418 39.67-28.418 23.27 0 42.2 18.871 42.2 42.149 0 11.269-4.5 21.441-11.7 29l97.9 169.71c6.3-2.32 13.1-3.648 20.3-3.648 29.9 0 54.5 22.328 58.2 51.208h197.3c3.3-20.03 20.5-35.349 41.5-35.349 6 0 11.7 1.321 16.9 3.598l101.4-175.63c-11.3-10.711-18.4-25.82-18.4-42.621 0-19.738 9.8-37.16 24.7-47.797l-98.6-170.78c-4.9 2.051-10.3 3.211-16 3.211-23.3 0-42.2-18.883-42.2-42.152 0-23.278 18.9-42.149 42.2-42.149 5.2 0 10.2 1.078 14.8 2.82l99.1-171.66c-15.9-10.5-26.4-28.519-26.4-49.011 0-32.438 26.3-58.731 58.7-58.731 29.5 0 53.8 21.703 58.1 49.973h201.4c4.9-17.77 21-30.891 40.4-30.891 6.4 0 12.5 1.559 17.9 4.16l98.9-171.25c-17.5-10.16-29.3-29.07-29.3-50.762 0-32.438 26.3-58.73 58.7-58.73 29.5 0 53.8 21.691 58.1 49.961h201.7c5.4-17.141 21.2-29.66 40.1-29.66 23.3 0 42.1 18.871 42.1 42.148 0 8.7812-2.7 16.922-7.3 23.684l101.9 176.35c3.8-0.801 7.8-1.219 11.9-1.219 32.4 0 58.7 26.289 58.7 58.73 0 32.43-26.3 58.731-58.7 58.731"/>
    <path d="m10423 4148.7c-4.5 1.7-9.4 2.76-14.6 2.76-21.1 0-38.4-15.6-41.5-35.85h-200.5c-4.8 27.65-28.8 48.7-57.8 48.7-6 0-11.7-0.9-17.1-2.55l-103.25 178.84c2.44 5.34 3.9 11.22 3.9 17.48 0 8.37-2.51 16.12-6.72 22.68l102.27 177.17c3.5-0.66 7.2-1.04 10.9-1.04 30.7 0 55.9 23.64 58.5 53.74h211.8c4.5-18.42 21-32.13 40.8-32.13 4.1 0 8 0.76 11.7 1.85l97.5-168.85c-12.6-10.78-20.6-26.77-20.6-44.65 0-19.25 9.3-36.27 23.6-46.98zm-453.47 246.52c-5.86 3.09-12.44 5.01-19.53 5.01-20.7 0-37.83-14.96-41.39-34.63h-200.83c-5.24 27.05-29.03 47.48-57.63 47.48-3.54 0-7-0.36-10.38-0.97l-102.23 177.09c5.27 7.04 8.5 15.68 8.5 25.15 0 8.99-2.87 17.29-7.66 24.14l101.63 176.03c4.05-0.87 8.24-1.37 12.56-1.37 28.58 0 52.37 20.43 57.62 47.48h199.37c4.95-17.78 21.08-30.9 40.44-30.9 6.37 0 12.35 1.52 17.77 4.05l97.93-169.54c-15.6-10.56-25.8-28.4-25.8-48.62 0-21.18 11.2-39.68 28-50.01zm-352.79-89.13-95.41-165.26c-4.77 1.86-9.91 2.98-15.33 2.98-21.07 0-38.39-15.53-41.5-35.73h-207.32l0.12 2.51c0 32.42-26.3 58.73-58.73 58.73-5.44 0-10.69-0.8-15.69-2.19l-100.15 173.48c5.79 7.22 9.41 16.26 9.41 26.24 0 5.46-1.13 10.64-3.02 15.44l102.21 177.01c5.45-1.67 11.24-2.58 17.24-2.58 28.21 0 51.74 19.88 57.41 46.4h197.47c4.95-17.79 21.09-30.92 40.44-30.92 5.22 0 10.15 1.07 14.76 2.8l99.12-171.67c-15.87-10.52-26.35-28.52-26.35-48.98 0-20.01 10.03-37.66 25.32-48.26zm-546.13-416.49c-6.12 3.46-13.09 5.6-20.62 5.6-21.55 0-39.13-16.25-41.64-37.12h-200.2c-4.24 28.28-28.55 49.97-58.01 49.97-4 0-7.92-0.41-11.7-1.17l-101.76 176.27c5.76 7.21 9.35 16.23 9.35 26.17 0 8.5-2.56 16.37-6.89 22.99l102.14 176.91c3.65-0.71 7.42-1.1 11.28-1.1 27.69 0 50.86 19.19 57.05 45h200.71c5.72-16.5 21.23-28.42 39.67-28.42 5.87 0 11.45 1.21 16.53 3.38l97.98-169.72c-14.9-10.65-24.66-28.05-24.66-47.77 0-21.62 11.72-40.46 29.11-50.66zm-466.73 261.87c-21.12 0-38.45-15.59-41.51-35.87h-198.1c-5.81 26.33-29.25 46.07-57.33 46.07-4.89 0-9.62-0.67-14.17-1.79l-100.64 174.32c5.19 7.01 8.38 15.6 8.38 24.99 0 11.14-4.41 21.2-11.47 28.74l102.56 177.64c6.32-2.33 13.11-3.66 20.24-3.66 29.02 0 53.06 21.06 57.83 48.73h196.32c4.11-19 20.96-33.25 41.18-33.25 4.92 0 9.57 1.01 13.96 2.55l96.03-166.31c-14.15-10.73-23.33-27.66-23.33-46.78 0-20.47 10.48-38.47 26.35-48.99l-98.42-170.5c-5.45 2.57-11.47 4.11-17.88 4.11zm-331.69-95.8-98.74-171.03c-4.7 1.81-9.76 2.9-15.09 2.9-18.82 0-34.57-12.43-39.99-29.46h-199.62c-4.77 27.65-28.81 48.73-57.82 48.73-4.1 0-8.08-0.42-11.93-1.21l-101.43 175.68c4.34 6.63 6.92 14.53 6.92 23.06 0 9.49-3.26 18.16-8.56 25.22l99.85 172.94c4.84-1.29 9.9-2.04 15.15-2.04 30.38 0 55.38 23.07 58.41 52.66h197.47c2.97-20.38 20.36-36.08 41.55-36.08 6.3 0 12.21 1.48 17.58 3.96l97.91-169.57c-15.47-10.58-25.64-28.35-25.64-48.5 0-19.41 9.46-36.57 23.98-47.26zm-542.5-426.8c-5.31 2.4-11.15 3.83-17.35 3.83-18.89 0-34.69-12.52-40.04-29.65h-203.4c-7.05 24.53-29.61 42.5-56.4 42.5-2.63 0-5.2-0.24-7.74-0.57l-103.26 178.85c4.33 6.62 6.89 14.49 6.89 22.98 0 9.96-3.6 18.98-9.37 26.19l100.82 174.63c4.82-1.28 9.85-2.02 15.07-2.02 29.46 0 53.78 21.7 58.02 49.99h198.2c4.02-19.08 20.94-33.41 41.21-33.41 6.05 0 11.76 1.32 16.95 3.61l97.95-169.65c-15.13-10.63-25.05-28.18-25.05-48.07 0-20.29 10.29-38.16 25.92-48.71zm-351.62-89.57-96.73-167.56c-5.74 2.91-12.12 4.72-19 4.72-20.27 0-37.19-14.33-41.21-33.41h-198.21c-4.23 28.28-28.55 49.99-58.01 49.99-2.72 0-5.38-0.25-8.02-0.62l-97.01 168.05c9.51 7.72 15.72 19.37 15.72 32.58 0 12.76-5.8 24.06-14.76 31.79l100.33 173.77c5.8-1.93 12-3.01 18.46-3.01 26.78 0 49.34 17.96 56.4 42.48h188.99c4.02-19.08 20.94-33.42 41.22-33.42 5.67 0 11.05 1.16 15.99 3.19l98.96-171.4c-16.47-10.41-27.42-28.72-27.42-49.63 0-19.57 9.6-36.85 24.3-47.52zm0.93-411.99c-16.12-10.48-26.81-28.62-26.81-49.26 0-21.99 12.12-41.14 30.01-51.19l-98.32-170.31c-6.31 3.8-13.63 6.11-21.54 6.11-21.12 0-38.47-15.61-41.51-35.88h-200.51c-4.76 27.67-28.8 48.73-57.82 48.73-3.17 0-6.25-0.31-9.28-0.8l-102.64 177.78c4.89 6.88 7.81 15.23 7.81 24.29 0 6.69-1.7 12.93-4.47 18.53l104.3 180.67c2.21-0.25 4.42-0.4 6.69-0.4 28.14 0 51.63 19.8 57.37 46.24h200.01c5.35-17.14 21.16-29.66 40.05-29.66 6.8 0 13.13 1.77 18.81 4.62zm1.8-523.99c-13.03-10.78-21.33-27.07-21.33-45.29 0-18.67 8.75-35.28 22.34-46.04l-99.09-171.65c-4.15 1.37-8.5 2.3-13.11 2.3-20.26 0-37.16-14.33-41.2-33.38h-198.87c-3.68 28.89-28.31 51.25-58.2 51.25-7.01 0-13.69-1.29-19.92-3.54l-98.86 171.26c7.62 7.63 12.34 18.16 12.34 29.8 0 11.16-4.41 21.23-11.49 28.77l99.36 172.13c3.17-0.53 6.41-0.88 9.73-0.88 28.15 0 51.65 19.81 57.37 46.25h203.57c6.36-15.23 21.38-25.94 38.9-25.94 5.54 0 10.79 1.13 15.64 3.08zm-546.64-518.69c-3.65 1.03-7.42 1.76-11.41 1.76-20.69 0-37.83-14.96-41.39-34.63h-200.82c-5.25 27.05-29.04 47.48-57.63 47.48-6.68 0-13.09-1.17-19.07-3.23l-99.74 172.75c8.93 7.74 14.7 19.01 14.7 31.75 0 12.28-5.35 23.24-13.74 30.95l99.2 171.8c6.54-2.52 13.63-3.96 21.06-3.96 28.58 0 52.37 20.43 57.63 47.49h199.36c4.95-17.79 21.09-30.91 40.44-30.91 3.31 0 6.5 0.48 9.59 1.2l99.34-172.08c-11.7-10.73-19.07-26.1-19.07-43.22 0-18.05 8.15-34.18 20.96-44.95zm-17.92 1034.3c-20.27 0-37.18-14.32-41.21-33.4h-183.61c-4.75 27.66-28.79 48.73-57.81 48.73-7.13 0-13.92-1.33-20.25-3.65l-105 181.87c5.46 7.11 8.83 15.9 8.83 25.55 0 7.63-2.2 14.72-5.77 20.91l103.15 178.66c2.96-0.46 5.96-0.76 9.05-0.76 27.24 0 50.09 18.57 56.73 43.73h213.05c5.35-17.14 21.15-29.67 40.05-29.67l2.29 0.23 96.87-167.79c-15.91-10.51-26.43-28.53-26.43-49.03 0-21.77 11.86-40.73 29.46-50.87l-98.34-170.35c-6.22 3.62-13.36 5.84-21.06 5.84zm-441.2 261.25c-21.55 0-39.12-16.26-41.64-37.13h-200.2c-4.24 28.28-28.55 49.98-58.01 49.98-4 0-7.91-0.41-11.7-1.17l-101.75 176.26c5.76 7.21 9.34 16.23 9.34 26.18 0 8.49-2.57 16.36-6.88 22.99l102.13 176.91c3.65-0.72 7.42-1.11 11.28-1.11 27.7 0 50.85 19.2 57.05 45h200.71c5.72-16.5 21.23-28.42 39.67-28.42 5.97 0 11.64 1.28 16.79 3.52l97.97-169.67c-15.06-10.64-24.91-28.14-24.91-47.95 0-21.62 11.72-40.47 29.11-50.67l-98.34-170.33c-6.12 3.46-13.08 5.61-20.62 5.61zm35.34 494.47 104.17 180.43c5.98-2.05 12.38-3.22 19.06-3.22 28.15 0 51.63 19.8 57.36 46.23h200.02c5.36-17.14 21.16-29.65 40.05-29.65 3.62 0 7.06 0.6 10.41 1.45l99.15-171.75c-12.06-10.76-19.7-26.38-19.7-43.81 0-17.23 7.47-32.68 19.29-43.43l-101.74-176.2c-1.66 0.19-3.29 0.5-5 0.5-19.81 0-36.31-13.72-40.83-32.15h-210.81c-3.68 28.88-28.3 51.25-58.19 51.25-4.46 0-8.79-0.55-12.97-1.49l-101.02 175c4.73 6.81 7.56 15.07 7.56 24.01 0 8.43-2.54 16.24-6.81 22.83zm888.26 466.7c4.85 6.87 7.77 15.21 7.77 24.26 0 8.04-2.37 15.47-6.28 21.86l102.69 177.87c3.27-0.57 6.6-0.92 10.03-0.92 28.13 0 51.62 19.79 57.36 46.21h209.59c4.5-18.44 21.02-32.16 40.83-32.16 4.07 0 7.93 0.76 11.65 1.84l98.58-170.74c-17.15-10.26-28.67-28.95-28.67-50.38 0-19.19 9.25-36.17 23.47-46.88l-97.54-168.95c-4.88 1.98-10.19 3.13-15.78 3.13-18.44 0-33.93-11.92-39.66-28.41h-200.73c-6.19 25.79-29.35 44.99-57.04 44.99-4.31 0-8.51-0.5-12.55-1.38zm-16.3 62.19c-5.5 2.63-11.58 4.22-18.07 4.22-20.71 0-37.85-14.97-41.4-34.65h-200.82c-5.24 27.07-29.02 47.5-57.63 47.5-4.16 0-8.21-0.44-12.14-1.27l-101.61 176.02c5.93 7.26 9.64 16.41 9.64 26.52 0 9.63-3.36 18.4-8.79 25.5l101.09 175.1c4.57-1.14 9.31-1.8 14.22-1.8 28.58 0 52.37 20.41 57.63 47.47h199.37c4.96-17.78 21.09-30.89 40.44-30.89 5.83 0 11.37 1.18 16.41 3.32l98-169.74c-14.85-10.66-24.56-28.03-24.56-47.69 0-20.58 10.6-38.66 26.63-49.15zm-449.48 257.71c-4.6 1.72-9.5 2.78-14.7 2.78-20.27 0-37.19-14.33-41.21-33.4h-196.61c-6.64 25.14-29.48 43.72-56.72 43.72-6.24 0-12.24-0.99-17.87-2.79l-99.46 172.27c6.7 7.46 10.9 17.23 10.9 28.05 0 13.14-6.16 24.73-15.58 32.46l101.63 176.04c6.16-2.19 12.76-3.45 19.67-3.45 29.02 0 53.06 21.07 57.82 48.73h198.79c4.51-18.42 21.01-32.14 40.83-32.14 4.28 0 8.33 0.83 12.23 2.01l98.09-169.91c-13.72-10.76-22.57-27.44-22.57-46.21 0-19.24 9.3-36.26 23.58-46.98zm466.92 240.66 103.17 178.69c6.33-2.33 13.12-3.67 20.25-3.67 29.02 0 53.07 21.07 57.81 48.74h198.8c4.5-18.43 21.01-32.15 40.83-32.15 4.06 0 7.91 0.75 11.63 1.83l99.36-172.09c-12.92-10.78-21.14-26.98-21.14-45.1 0-18.14 8.22-34.34 21.14-45.12l-99.37-172.11c-3.71 1.08-7.57 1.84-11.63 1.84-19.79 0-36.3-13.73-40.82-32.14h-208.76c-3.69 28.88-28.31 51.25-58.2 51.25-4.36 0-8.57-0.51-12.66-1.41l-101.13 175.18c4.63 6.77 7.35 14.94 7.35 23.76 0 8.29-2.48 15.98-6.63 22.5zm2781.7 177.58c5.4-1.66 11.1-2.56 17.1-2.56 29 0 53 21.07 57.8 48.74h198.8c4.5-18.43 21-32.15 40.8-32.15 5.3 0 10.2 1.07 14.9 2.83l99.9-173.09c-12.9-10.77-21.1-26.98-21.1-45.1 0-18.14 8.2-34.35 21.1-45.12l-98.4-170.52c-0.9 0.06-1.8 0.27-2.7 0.27-19.8 0-36.3-13.73-40.8-32.15h-213.6c-6.6 25.14-29.5 43.71-56.7 43.71-5 0-9.8-0.68-14.5-1.86l-100.52 174.17c5.3 7.05 8.57 15.72 8.57 25.22 0 11.94-5.02 22.67-13.01 30.34zm475.5-653.91c-7.4 0-14.4-1.42-20.9-3.9l-97.3 168.57c8 7.68 13.1 18.42 13.1 30.4 0 15.1-8.1 28.26-20 35.7l96.2 166.73c6.4-2.32 13.2-3.65 20.3-3.65 32.4 0 58.7 26.29 58.7 58.73 0 32.42-26.3 58.73-58.7 58.73-7.1 0-13.9-1.34-20.3-3.67l-100.7 174.53c6.6 7.45 10.8 17.15 10.8 27.92 0 23.26-18.9 42.14-42.2 42.14-19.8 0-36.3-13.72-40.8-32.14h-198.8c-4.8 27.66-28.8 48.73-57.8 48.73-32.4 0-58.7-26.3-58.7-58.73 0-19.33 9.3-36.42 23.7-47.12l-101.82-176.4c-3.76 1.1-7.66 1.87-11.78 1.87-20.27 0-37.18-14.32-41.21-33.39h-198.22c-4.23 28.27-28.56 49.98-58 49.98-32.44 0-58.73-26.3-58.73-58.73 0-20.96 11-39.29 27.51-49.69l-98.4-170.44c-5.75 2.94-12.16 4.75-19.06 4.75-20.26 0-37.16-14.32-41.21-33.38h-195.93c-3.77 28.8-28.35 51.06-58.18 51.06-32.43 0-58.73-26.3-58.73-58.73 0-19.27 9.33-36.32 23.66-47.03l-97.41-168.72c-7.2 5.73-16.19 9.3-26.1 9.3-21.13 0-38.47-15.6-41.52-35.88h-197.53c-3.13 29.48-28.07 52.46-58.38 52.46-6.16 0-12.07-0.96-17.65-2.71l-97 168.01c7.02 7.52 11.4 17.55 11.4 28.66 0 23.28-18.87 42.14-42.14 42.14-19.41 0-35.59-13.19-40.49-31.04h-197.01c-4.77 27.66-28.81 48.73-57.83 48.73-32.43 0-58.73-26.3-58.73-58.73 0-18.14 8.24-34.34 21.15-45.11l-102.04-176.72c-4.35 1.53-8.98 2.53-13.86 2.53-18.36 0-33.83-11.83-39.61-28.22h-200.82c-6.27 25.69-29.38 44.8-57 44.8-3.82 0-7.55-0.4-11.17-1.09l-100.08 173.35c8.03 7.68 13.1 18.44 13.1 30.44 0 11.99-5.07 22.76-13.12 30.44l99.31 172.02c6.32-2.32 13.12-3.65 20.25-3.65 32.43 0 58.73 26.29 58.73 58.73 0 32.42-26.3 58.73-58.73 58.73-7.13 0-13.93-1.34-20.26-3.67l-99.29 172.01c8.04 7.67 13.12 18.44 13.12 30.44 0 23.26-18.89 42.14-42.15 42.14-19.82 0-36.33-13.72-40.83-32.14h-198.8c-4.74 27.66-28.8 48.73-57.81 48.73-32.43 0-58.73-26.3-58.73-58.73 0-18.14 8.22-34.34 21.14-45.11l-100.79-174.57c-6.1 3.44-13.04 5.57-20.55 5.57-20.28 0-37.19-14.34-41.23-33.41h-198.2c-4.23 28.27-28.55 49.99-58.01 49.99-6.48 0-12.71-1.1-18.54-3.04l-98.45 170.51c7.79 7.65 12.66 18.27 12.66 30.06 0 23.26-18.89 42.14-42.15 42.14-19.82 0-36.33-13.73-40.83-32.15h-198.79c-4.76 27.66-28.8 48.74-57.82 48.74-32.42 0-58.73-26.3-58.73-58.73 0-18.36 8.43-34.74 21.62-45.51l-102.21-177.01c-2.76 0.57-5.62 0.87-8.55 0.87-23.27 0-42.15-18.87-42.15-42.14 0-23.29 18.88-42.15 42.15-42.15 5.19 0 10.09 1.06 14.69 2.78l98.3-170.25c-14.04-10.74-23.14-27.61-23.14-46.64 0-32.44 26.3-58.73 58.73-58.73 30.75 0 55.94 23.64 58.48 53.74h195.63c4.94-17.78 21.09-30.9 40.43-30.9 5.86 0 11.43 1.2 16.5 3.36l98.9-171.31c-16.71-10.35-27.87-28.79-27.87-49.9 0-32.44 26.3-58.73 58.73-58.73 29.45 0 53.76 21.69 58.01 49.96h201.79c5.35-17.13 21.15-29.65 40.05-29.65 6.83 0 13.19 1.79 18.9 4.68l100.53-174.12c-16.51-10.39-27.52-28.73-27.52-49.68 0-20.06 10.07-37.74 25.4-48.34l-98.5-170.59c-5.15 2.26-10.84 3.55-16.84 3.55-19.35 0-35.48-13.11-40.43-30.88h-187.65c-1.93 30.67-27.36 54.98-58.53 54.98-7.81 0-15.24-1.56-22.05-4.32l-98.49 170.6c8.59 7.71 14.1 18.79 14.1 31.25 0 23.27-18.88 42.15-42.15 42.15-20.7 0-37.84-14.97-41.39-34.65h-197.84c-3.69 28.88-28.32 51.23-58.2 51.23-32.43 0-58.73-26.3-58.73-58.73 0-18.59 8.65-35.13 22.13-45.89l-101.7-176.15c-6.03 3.35-12.88 5.42-20.27 5.42-21.13 0-38.47-15.6-41.52-35.88h-197.53c-3.13 29.48-28.06 52.46-58.38 52.46-32.44 0-58.74-26.3-58.74-58.73 0-21.4 11.48-40.07 28.58-50.33l-98.38-170.39c-6.01 3.3-12.8 5.35-20.14 5.35-23.27 0-42.15-18.87-42.15-42.15s18.88-42.15 42.15-42.15c6.01 0 11.69 1.29 16.87 3.55l98.89-171.29c-16.9-10.31-28.23-28.86-28.23-50.11 0-32.44 26.3-58.73 58.73-58.73 28.6 0 52.39 20.43 57.64 47.48h202.93c6.05-15.86 21.29-27.17 39.28-27.17 6.29 0 12.18 1.46 17.55 3.93l103.43-179.16c-12.92-10.79-21.14-26.98-21.14-45.12 0-32.44 26.29-58.73 58.73-58.73 29.02 0 53.07 21.07 57.81 48.73h184.38c4.95-17.78 21.09-30.9 40.44-30.9 6.82 0 13.17 1.78 18.87 4.66l98.84-171.2c-18-10.04-30.18-29.24-30.18-51.31 0-21.92 12.03-41 29.82-51.09l-97.01-168.02c-4.36 1.52-8.96 2.51-13.83 2.51-20.26 0-37.17-14.32-41.21-33.39h-198.21c-4.24 28.27-28.56 49.97-58.01 49.97-32.43 0-58.73-26.29-58.73-58.73 0-17.81 7.96-33.75 20.49-44.51l-99.56-172.45c-3.5 0.93-7.09 1.59-10.87 1.59-23.27 0-42.15-18.87-42.15-42.15s18.88-42.15 42.15-42.15c3.34 0 6.54 0.49 9.66 1.22l100-173.19c-13.48-10.76-22.13-27.3-22.13-45.88 0-32.44 26.3-58.73 58.73-58.73 29.46 0 53.78 21.7 58.01 49.98h201.77c5.35-17.15 21.17-29.67 40.06-29.67 23.27 0 42.15 18.87 42.15 42.15 0 12.08-5.16 22.9-13.3 30.59l99.27 171.96c6.38-2.38 13.26-3.74 20.47-3.74 28.13 0 51.62 19.79 57.36 46.21h200.47c4.94-17.79 21.08-30.92 40.44-30.92 23.28 0 42.15 18.87 42.15 42.15 0 11.43-4.59 21.78-12 29.37l99.63 172.57c5.91-2 12.22-3.13 18.81-3.13 32.42 0 58.73 26.29 58.73 58.73 0 32.42-26.31 58.73-58.73 58.73-7.04 0-13.75-1.3-20-3.57l-103.95 180.06c6.29 7.38 10.24 16.81 10.24 27.26 0 7.83-2.28 15.06-6 21.35l102.95 178.3c3.09-0.51 6.25-0.84 9.49-0.84 32.43 0 58.73 26.29 58.73 58.73 0 32.42-26.3 58.73-58.73 58.73-4.62 0-9.08-0.59-13.39-1.58l-100.9 174.75c4.9 6.89 7.85 15.27 7.85 24.36 0 9.01-2.89 17.32-7.71 24.18l99.28 171.96c5.23-1.51 10.73-2.36 16.44-2.36 31.17 0 56.59 24.28 58.53 54.96h199.92c3.54-19.69 20.69-34.65 41.39-34.65 23.27 0 42.15 18.87 42.15 42.15 0 9.72-3.44 18.58-8.98 25.72l100.99 174.94c4.63-1.17 9.44-1.86 14.43-1.86 29.01 0 53.05 21.07 57.82 48.73h198.2c3.48-19.78 20.65-34.83 41.41-34.83 23.27 0 42.15 18.87 42.15 42.15 0 10.66-4.1 20.28-10.63 27.71l100.22 173.57c5.34-1.59 10.98-2.48 16.84-2.48 29.94 0 54.61 22.43 58.22 51.4h199.06c5.71-16.5 21.23-28.43 39.66-28.43 6.01 0 11.7 1.3 16.88 3.57l98.89-171.3c-16.91-10.3-28.24-28.86-28.24-50.12 0-32.44 26.3-58.73 58.73-58.73 28.6 0 52.39 20.44 57.63 47.49h202.94c6.05-15.86 21.3-27.18 39.28-27.18 23.27 0 42.15 18.87 42.15 42.15 0 8.26-2.47 15.92-6.59 22.43l102.42 177.39c3.43-0.63 6.97-1.01 10.6-1.01 24.46 0 45.41 14.96 54.25 36.22h213.47c5.67-16.58 21.22-28.57 39.71-28.57 23.28 0 42.15 18.87 42.15 42.15 0 10.56-4.03 20.11-10.47 27.52l97.29 168.5c4.85-1.3 9.92-2.06 15.18-2.06 29.46 0 53.77 21.7 58.01 49.98h201.79c5.34-17.14 21.15-29.67 40.05-29.67 9.26 0 17.75 3.08 24.7 8.15l98.9-171.38c-14.4-10.7-23.7-27.79-23.7-47.12 0-32.44 26.3-58.73 58.7-58.73 29 0 53.1 21.08 57.8 48.76h202.3c5.8-16.52 21.3-28.45 39.7-28.45 23.3 0 42.2 18.86 42.2 42.15 0 10.84-4.2 20.63-11 28.11l100.1 173.3c5.5-1.68 11.3-2.6 17.3-2.6 32.4 0 58.7 26.29 58.7 58.73 0 32.42-26.3 58.73-58.7 58.73"/>
   </g>
   <g clip-path="url(#clipPath1136)"></g>
   <g clip-path="url(#clipPath1160)"></g>
   <g clip-path="url(#clipPath1184)">
    <g clip-path="url(#clipPath1190)">
     <path d="m10563 3051v31h311v2h1v1h1v2h1v2h1v2h1v1h1v2h1v2h1v2h1v1h1v2h1v2h1v2h1v1h1v2h1v2h1v1h1v2h1v2h1v2h1v1h1v2h1v2h1v2h1v1h1v2h1v2h1v2h1v1h1v2h1v2h1v1h1v2h1v2h1v2h1v1h1v2h1v2h1v2h1v1h1v2h1v2h1v1h1v2h1v2h1v2h1v1h1v2h1v2h1v2h1v1h1v2h1v2h1v1h35v-3h-1v-2h-1v-2h-1v-1h-1v-2h-1v-2h-1v-2h-1v-1h-1v-2h-1v-2h-1v-2h-1v-1h-1v-2h-1v-2h-1v-1h-1v-2h-1v-2h-1v-2h-1v-1h-1v-2h-1v-2h-1v-2h-1v-1h-1v-2h-1v-2h-1v-2h-1v-1h-1v-2h-1v-2h-1v-1h-1v-2h-1v-2h-1v-2h-1v-1h-1v-2h-1v-2h-1v-2h-1v-1h-1v-2h-1v-2h-1v-2h-1v-1h-1v-2h-1v-2h-1v-1h-1v-2h-1v-2h-1v-2h-1v-1h-1v-2h-1v-2h-1v-2h-1v-1h-1v-2h-1v-2h-1v-2h-1v-1h-1v-2h-1v-2h-1v-1h-1v-2h-1v-2h-1v-2h-1v-1h-1v-2h-1v-2h-1v-2h-1v-1h-1v-2h-1v-2h-1v-1"/>
    </g>
   </g>
   <g clip-path="url(#clipPath1208)"></g>
   <g clip-path="url(#clipPath1466)">
    <g transform="scale(10)" fill="#ffffff">
     <text transform="matrix(1 0 0 -1 173.83 266.33)" font-family="Bebas" font-size="28px">
      <tspan x="0 22.841309 40.173813 55.100109 70.483925 87.558113 104.91061 119.83642 135.2202" y="0">MOLECULES</tspan>
     </text>
     <text transform="matrix(1 0 0 -1 172.31 245.33)" font-family="AnticSans" font-size="17px">
      <tspan x="0 13.803694 29.715796 44.879913 59.414593 75.207588 89.810593 106.84481 123.11342 139.68861" y="0">BACKGROUND</tspan>
     </text>
    </g>
    <path d="m3271 2386.6c-10.93-0.91-19.44-8.56-21.68-18.25h-1498.6c-2.4 10.48-12.17 18.34-23.88 18.34-13.53 0-24.5-10.45-24.5-23.34 0-12.88 10.97-23.33 24.5-23.33 11.71 0 21.48 7.85 23.88 18.33h1498.6c2.59-11.27 13.54-19.28 25.92-18.24 13.47 1.12 23.45 12.44 22.28 25.27-1.18 12.84-13.05 22.34-26.52 21.22" fill="#fff"/>
    <g transform="scale(10)" fill="#ffffff" font-family="AnticSans">
     <text transform="matrix(1 0 0 -1 329.5 42.592)" font-size="21px">
      <tspan x="0" y="0">H</tspan>
     </text>
     <text transform="matrix(1 0 0 -1 355.53 42.592)" font-size="21px">
      <tspan x="0" y="0">O</tspan>
     </text>
     <text transform="matrix(1 0 0 -1 344.92 39.855)" font-size="16px">
      <tspan x="0" y="0">2</tspan>
     </text>
     <text transform="matrix(1 0 0 -1 246.5 470.5)" font-size="21px">
      <tspan x="0" y="0">C</tspan>
     </text>
     <text transform="matrix(1 0 0 -1 258.93 470.5)" font-size="14px">
      <tspan x="0" y="0">2</tspan>
     </text>
     <text transform="matrix(1 0 0 -1 266.94 470.5)" font-size="21px">
      <tspan x="0" y="0">H</tspan>
     </text>
     <text transform="matrix(1 0 0 -1 279.87 470.5)" font-size="14px">
      <tspan x="0" y="0">4</tspan>
     </text>
    </g>
   </g>
   <g fill="#fff">
    <path d="m1790.2 265.29c-1.4-3.059-3.28-5.34-5.63-6.809-2.36-1.5-4.96-2.242-7.81-2.242-2.81 0-5.39 0.782-7.78 2.364-2.37 1.55-4.23 3.867-5.6 6.968-1.36 3.078-2.05 6.809-2.05 11.211 0 4.16 0.64 7.801 1.93 10.949 1.28 3.149 3.1 5.559 5.43 7.239 2.34 1.679 4.99 2.531 7.96 2.531 2.84 0 5.46-0.828 7.86-2.461 2.39-1.648 4.29-4.019 5.69-7.129 1.42-3.109 2.11-6.82 2.11-11.129 0-4.582-0.69-8.422-2.11-11.492zm10.66 68.402c-2.46 0-4.35-0.839-5.67-2.55-1.33-1.692-1.99-4.211-1.99-7.532v-23.918c-3.04 3.321-6.17 5.789-9.37 7.391-3.21 1.59-7.15 2.398-11.82 2.398-8.06 0-14.57-2.832-19.52-8.48-4.95-5.66-7.43-13.559-7.43-23.699 0-4.77 0.63-9.219 1.88-13.34 1.24-4.129 3.07-7.699 5.49-10.75 2.41-3.031 5.27-5.391 8.58-7.031 3.3-1.641 6.89-2.461 10.77-2.461 2.93 0 5.63 0.402 8.09 1.222 2.48 0.809 4.77 1.989 6.89 3.571 2.12 1.547 4.27 3.59 6.44 6.07v-1.602c0-2.968 0.72-5.25 2.17-6.859 1.44-1.601 3.27-2.402 5.49-2.402 2.26 0 4.09 0.773 5.52 2.32 1.43 1.543 2.14 3.852 2.14 6.941v71.461c0 3.059-0.67 5.348-1.99 6.911-1.33 1.558-3.22 2.339-5.67 2.339"/>
    <path d="m1833 281.87c0.56 5.469 2.13 9.598 4.72 12.391 2.59 2.797 5.9 4.179 9.94 4.179 4.24 0 7.64-1.371 10.24-4.109 2.59-2.762 4.09-6.902 4.48-12.461zm41.55-7.379c2.33 1.219 3.5 3.848 3.5 7.93 0 4.387-1.14 8.699-3.39 12.937-2.25 4.231-5.64 7.692-10.18 10.352-4.53 2.68-9.96 4.008-16.28 4.008-4.87 0-9.3-0.778-13.3-2.348-4-1.562-7.37-3.812-10.09-6.742-2.73-2.918-4.8-6.43-6.23-10.527-1.43-4.082-2.14-8.532-2.14-13.321 0-10.172 2.89-18.23 8.67-24.152 5.77-5.93 13.87-8.91 24.27-8.91 4.56 0 8.58 0.601 12.07 1.793 3.52 1.187 6.41 2.679 8.74 4.468 2.31 1.809 4.03 3.68 5.19 5.641 1.14 1.969 1.72 3.668 1.72 5.141 0 1.66-0.52 2.937-1.55 3.859-1.03 0.899-2.37 1.371-4.03 1.371-1.54 0-2.74-0.371-3.57-1.082-2.02-1.89-3.65-3.398-4.92-4.512-1.26-1.109-2.65-2.156-4.15-3.109-1.51-0.98-3.05-1.68-4.67-2.148-1.59-0.442-3.36-0.672-5.3-0.672-2.89 0-5.54 0.703-7.92 2.133-2.4 1.418-4.32 3.539-5.76 6.347-1.45 2.813-2.19 6.051-2.23 9.742h31.69c4.24 0 7.53 0.598 9.86 1.801"/>
    <path d="m1928.8 278.86c-3.18 1.7-7.29 3.161-12.31 4.391-4.24 1.039-7.55 1.91-9.97 2.621-2.42 0.688-4.33 1.598-5.76 2.688-1.42 1.089-2.13 2.48-2.13 4.179 0 1.871 0.97 3.422 2.9 4.66 1.95 1.25 4.37 1.872 7.3 1.872 2.86 0 5.11-0.469 6.78-1.418 1.66-0.961 3.1-2.231 4.32-3.801 1.51-1.903 2.84-3.321 4.01-4.262 1.16-0.957 2.58-1.437 4.24-1.437 2.3 0 4.08 0.609 5.32 1.777 1.24 1.191 1.86 2.711 1.86 4.57 0 1.711-0.58 3.442-1.75 5.231-1.16 1.781-2.86 3.402-5.1 4.859-2.23 1.461-5.02 2.641-8.37 3.5-3.34 0.883-7.11 1.313-11.31 1.313-5.34 0-9.89-0.852-13.67-2.59-3.78-1.723-6.64-4.02-8.58-6.903-1.94-2.89-2.91-5.968-2.91-9.199 0-3.64 1.05-6.711 3.15-9.211 2.1-2.488 4.89-4.5 8.4-6.019 3.5-1.52 8.04-2.969 13.61-4.348 4.94-1.191 8.49-2.441 10.66-3.75 2.16-1.312 3.23-3.383 3.23-6.223 0-1.867-1.03-3.519-3.11-4.968-2.08-1.442-4.74-2.161-7.98-2.161-4 0-7.15 0.711-9.47 2.129-2.32 1.43-4.31 3.571-5.97 6.473-0.82 1.5-1.7 2.668-2.62 3.508-0.9 0.82-2.2 1.242-3.9 1.242-1.94 0-3.55-0.641-4.81-1.91-1.27-1.262-1.9-2.774-1.9-4.563 0-2.687 0.99-5.367 2.96-8.039 1.98-2.672 5.05-4.898 9.21-6.668 4.15-1.793 9.14-2.683 14.95-2.683 6.09 0 11.27 0.82 15.52 2.461 4.25 1.64 7.47 4.05 9.64 7.25 2.19 3.179 3.27 7.011 3.27 11.48 0 2.969-0.82 5.61-2.46 7.922-1.65 2.32-4.06 4.34-7.25 6.027"/>
    <path d="m1954.9 309.6c-2.37 0-4.3-0.813-5.78-2.43-1.49-1.621-2.22-4.051-2.22-7.242v-46.36c0-3.16 0.73-5.59 2.22-7.3 1.48-1.7 3.41-2.551 5.78-2.551 2.38 0 4.33 0.832 5.88 2.492 1.54 1.66 2.32 4.121 2.32 7.359v46.828c0 2.891-0.78 5.153-2.32 6.774-1.55 1.617-3.5 2.43-5.88 2.43"/>
    <path d="m1955 332.99c-2.17 0-4.08-0.73-5.72-2.23-1.65-1.492-2.46-3.371-2.46-5.672 0-2.539 0.8-4.488 2.4-5.871 1.6-1.387 3.53-2.09 5.78-2.09 2.18 0 4.06 0.711 5.64 2.121 1.58 1.391 2.38 3.352 2.38 5.84 0 2.582-0.81 4.531-2.44 5.879-1.62 1.34-3.48 2.023-5.58 2.023"/>
    <path d="m2016 265.95c-1.52-2.898-3.46-5.078-5.86-6.539-2.4-1.43-4.93-2.16-7.62-2.16-4.55 0-8.26 1.68-11.13 5.039-2.87 3.371-4.3 8.34-4.3 14.91 0 6.481 1.39 11.492 4.18 15.012 2.79 3.508 6.49 5.289 11.13 5.289 4.75 0 8.57-1.852 11.48-5.539 2.91-3.672 4.37-8.82 4.37-15.422 0-4.16-0.76-7.68-2.25-10.59zm10.26 43.653c-2.17 0-3.96-0.77-5.35-2.313-1.38-1.547-2.07-3.73-2.07-6.527v-2.211c-2.89 3.758-6.02 6.531-9.38 8.301-3.36 1.738-7.34 2.628-11.93 2.628-3.84 0-7.36-0.679-10.56-2.039-3.21-1.371-6.04-3.402-8.49-6.082-2.45-2.687-4.33-6-5.67-9.918-1.33-3.91-1.98-8.312-1.98-13.179 0-6.532 1.08-12.27 3.26-17.262 2.17-4.988 5.29-8.871 9.34-11.629 4.07-2.781 8.8-4.16 14.22-4.16 4.5 0 8.4 0.898 11.66 2.719 3.27 1.82 6.14 4.468 8.64 7.968-0.08-5.308-0.2-9.156-0.36-11.546-0.15-2.411-0.7-4.653-1.63-6.731-0.93-2.101-2.55-3.742-4.87-4.91-2.31-1.172-5.57-1.742-9.77-1.742-2.05 0-3.87 0.179-5.45 0.551-1.59 0.378-2.94 0.949-4.06 1.722-1.13 0.778-2.17 1.699-3.09 2.797-0.94 1.082-1.84 2.16-2.7 3.242-1.78 2.09-3.86 3.129-6.23 3.129-1.9 0-3.53-0.609-4.87-1.859-1.35-1.242-2.02-2.852-2.02-4.84 0-2.609 1.19-5.152 3.56-7.621 2.38-2.481 5.76-4.5 10.15-6.059 4.39-1.562 9.38-2.34 14.96-2.34 6.09 0 11.19 0.598 15.28 1.829 4.09 1.218 7.41 3.121 9.94 5.64 2.53 2.539 4.38 5.738 5.51 9.61 1.16 3.89 1.73 8.511 1.73 13.89v47.059c0 3.84-0.51 6.793-1.55 8.82-1.02 2.031-3.1 3.063-6.22 3.063"/>
    <path d="m2099.8 298.93c-1.65 3.379-4.17 6.019-7.53 7.879-3.37 1.863-7.18 2.793-11.46 2.793-4.39 0-8.28-0.883-11.65-2.641-3.39-1.762-6.51-4.52-9.35-8.281v1.949c0 1.953-0.35 3.59-1.04 4.941-0.7 1.328-1.62 2.34-2.76 3.02-1.15 0.68-2.44 1.012-3.87 1.012-2.33 0-4.17-0.762-5.52-2.282-1.34-1.531-2.01-3.828-2.01-6.922v-46.828c0-3.16 0.76-5.59 2.26-7.3 1.5-1.7 3.41-2.551 5.76-2.551 2.41 0 4.38 0.82 5.9 2.461 1.52 1.64 2.28 4.109 2.28 7.39v20.309c0 6.601 0.4 11.109 1.19 13.519 1.11 3 2.84 5.372 5.23 7.102 2.37 1.73 5 2.582 7.88 2.582 4.44 0 7.4-1.422 8.88-4.25 1.48-2.82 2.23-6.91 2.23-12.25v-27.012c0-3.16 0.74-5.59 2.25-7.3 1.51-1.7 3.46-2.551 5.88-2.551 2.37 0 4.3 0.832 5.78 2.492 1.49 1.66 2.23 4.121 2.23 7.359v30.16c0 3.559-0.16 6.481-0.48 8.782-0.31 2.277-1.01 4.429-2.08 6.418"/>
    <path d="m2126.7 281.87c0.55 5.469 2.12 9.598 4.71 12.391 2.59 2.797 5.91 4.179 9.94 4.179 4.24 0 7.65-1.371 10.24-4.109 2.59-2.762 4.09-6.902 4.48-12.461zm41.54-7.379c2.34 1.219 3.5 3.848 3.5 7.93 0 4.387-1.13 8.699-3.38 12.937-2.26 4.231-5.65 7.692-10.19 10.352-4.53 2.68-9.95 4.008-16.28 4.008-4.87 0-9.3-0.778-13.3-2.348-3.99-1.562-7.35-3.812-10.08-6.742-2.74-2.918-4.81-6.43-6.24-10.527-1.42-4.082-2.13-8.532-2.13-13.321 0-10.172 2.89-18.23 8.66-24.152 5.78-5.93 13.87-8.91 24.28-8.91 4.55 0 8.58 0.601 12.08 1.793 3.5 1.187 6.4 2.679 8.71 4.468 2.32 1.809 4.06 3.68 5.2 5.641 1.15 1.969 1.72 3.668 1.72 5.141 0 1.66-0.51 2.937-1.54 3.859-1.03 0.899-2.37 1.371-4.03 1.371-1.55 0-2.74-0.371-3.57-1.082-2.01-1.89-3.66-3.398-4.92-4.512-1.28-1.109-2.66-2.156-4.15-3.109-1.51-0.98-3.07-1.68-4.66-2.148-1.61-0.442-3.38-0.672-5.32-0.672-2.89 0-5.53 0.703-7.92 2.133-2.39 1.418-4.31 3.539-5.76 6.347-1.44 2.813-2.18 6.051-2.22 9.742h31.68c4.25 0 7.53 0.598 9.86 1.801"/>
    <path d="m2221.4 265.29c-1.4-3.059-3.28-5.34-5.64-6.809-2.35-1.5-4.95-2.242-7.81-2.242-2.8 0-5.39 0.782-7.76 2.364-2.38 1.55-4.25 3.867-5.62 6.968-1.36 3.078-2.05 6.809-2.05 11.211 0 4.16 0.64 7.801 1.93 10.949 1.29 3.149 3.1 5.559 5.43 7.239 2.34 1.679 5 2.531 7.96 2.531 2.85 0 5.47-0.828 7.86-2.461 2.4-1.648 4.3-4.019 5.7-7.129 1.41-3.109 2.11-6.82 2.11-11.129 0-4.582-0.7-8.422-2.11-11.492zm10.66 68.402c-2.46 0-4.35-0.839-5.67-2.55-1.33-1.692-2-4.211-2-7.532v-23.918c-3.04 3.321-6.16 5.789-9.37 7.391-3.2 1.59-7.14 2.398-11.81 2.398-8.07 0-14.58-2.832-19.53-8.48-4.94-5.66-7.41-13.559-7.41-23.699 0-4.77 0.62-9.219 1.86-13.34 1.25-4.129 3.08-7.699 5.5-10.75 2.41-3.031 5.27-5.391 8.57-7.031 3.3-1.641 6.89-2.461 10.77-2.461 2.93 0 5.63 0.402 8.11 1.222 2.47 0.809 4.75 1.989 6.88 3.571 2.11 1.547 4.26 3.59 6.43 6.07v-1.602c0-2.968 0.73-5.25 2.17-6.859 1.45-1.601 3.28-2.402 5.5-2.402 2.26 0 4.09 0.773 5.51 2.32 1.43 1.543 2.14 3.852 2.14 6.941v71.461c0 3.059-0.66 5.348-1.99 6.911-1.32 1.558-3.21 2.339-5.66 2.339"/>
    <path d="m2318 261.55c-2.95-3.539-6.46-5.313-10.53-5.313-4.79 0-8.66 1.742-11.6 5.211-2.95 3.449-4.42 8.403-4.42 14.86 0 4.39 0.68 8.183 2.07 11.371 1.39 3.179 3.28 5.609 5.7 7.289 2.4 1.679 5.16 2.531 8.25 2.531 3 0 5.64-0.852 7.9-2.531 2.25-1.68 3.99-4.059 5.21-7.149 1.23-3.078 1.84-6.769 1.84-11.039 0-6.609-1.48-11.679-4.42-15.23zm7.9 44.109c-4.06 2.539-8.78 3.82-14.16 3.82-4.66 0-8.59-0.839-11.75-2.519-3.17-1.68-6.27-4.109-9.32-7.27v24.75c0 2.969-0.68 5.25-2.02 6.86-1.34 1.59-3.26 2.39-5.75 2.39-2.38 0-4.23-0.839-5.56-2.519-1.32-1.68-1.98-4.16-1.98-7.442v-70.75c0-3.05 0.69-5.351 2.05-6.929 1.36-1.559 3.19-2.332 5.49-2.332 2.25 0 4.12 0.773 5.57 2.332 1.47 1.578 2.2 3.879 2.2 6.929v1.602c1.78-2.043 3.22-3.602 4.3-4.633 1.1-1.019 2.41-2.027 3.95-3 1.54-0.969 3.41-1.738 5.61-2.34 2.19-0.597 4.54-0.89 7.03-0.89 4.08 0 7.81 0.82 11.19 2.461 3.38 1.64 6.26 3.98 8.64 6.98 2.37 3 4.18 6.57 5.43 10.649 1.25 4.101 1.87 8.589 1.87 13.492 0 6.66-1.12 12.418-3.36 17.25-2.24 4.847-5.38 8.551-9.43 11.109"/>
    <path d="m2395.3 308.62c-1.12 0.66-2.29 0.981-3.53 0.981-1.71 0-3.02-0.293-3.95-0.891-0.93-0.59-1.8-1.742-2.63-3.441-0.83-1.711-1.77-4.059-2.79-7.059l-13-37.102-13.72 39.891c-0.9 2.77-1.95 4.891-3.14 6.371-1.19 1.488-2.95 2.231-5.28 2.231-1.35 0-2.65-0.352-3.89-1.071-1.24-0.711-2.22-1.66-2.94-2.851-0.71-1.18-1.07-2.469-1.07-3.848 0-1.301 0.62-3.41 1.85-6.281l19.94-50.219-1.49-3.633c-1.11-2.648-2.08-4.648-2.94-6.008-0.85-1.371-1.8-2.339-2.87-2.89s-2.54-0.832-4.4-0.832c-0.74 0-1.64 0.121-2.66 0.351l-2.57 0.371c-2.2 0-3.88-0.511-5-1.519-1.13-1-1.7-2.453-1.7-4.301 0-2.73 1.19-4.609 3.57-5.652 2.37-1.02 5.93-1.528 10.68-1.528 4.87 0 8.73 0.731 11.6 2.219 2.87 1.481 5.18 3.621 6.91 6.379 1.75 2.77 3.53 6.59 5.35 11.461l21.13 55.309c0.51 1.421 0.95 2.832 1.3 4.211 0.37 1.39 0.61 2.46 0.78 3.21 0 1.231-0.31 2.391-0.92 3.5-0.62 1.11-1.49 1.989-2.62 2.641"/>
    <path d="m2619.3 333.74c-5.34 0-9.54-0.679-12.6-2.039-3.08-1.367-5.27-3.539-6.54-6.519-1.3-3.008-1.92-7.032-1.92-12.11v-4.871h-3.86c-5.43 0-8.15-1.918-8.15-5.82 0-1.75 0.65-3.16 1.96-4.238 1.32-1.11 3.16-1.641 5.59-1.641h4.46v-42.93c0-3.191 0.74-5.621 2.28-7.3 1.54-1.7 3.44-2.54 5.73-2.54 2.43 0 4.38 0.84 5.89 2.54 1.55 1.679 2.3 4.109 2.3 7.3v42.93h3.96c2.91 0 5.16 0.371 6.81 1.082 1.66 0.707 2.45 2.398 2.45 5.027 0 3.743-3.07 5.59-9.26 5.59h-3.96v3.86c0 3.211 0.43 5.671 1.22 7.39 0.87 1.723 2.74 2.602 5.66 2.602 1.07 0 2.41-0.141 3.89-0.34 1.56-0.262 2.68-0.379 3.31-0.379 1.33 0 2.52 0.539 3.47 1.598 1.01 1.07 1.51 2.351 1.51 3.851 0 4.668-4.71 6.957-14.2 6.957"/>
    <path d="m2670.9 307.08c-3.2 1.707-6.48 2.559-9.9 2.559s-6.11-0.852-8.19-2.559c-2.02-1.711-4-4.211-5.92-7.551-0.14 3.34-0.81 5.84-1.99 7.551-1.19 1.707-3.12 2.559-5.83 2.559-5.25 0-7.88-3.641-7.88-10.942v-45.129c0-3.23 0.78-5.691 2.26-7.332 1.49-1.687 3.4-2.508 5.79-2.508 2.36 0 4.31 0.809 5.86 2.469 1.5 1.633 2.33 4.102 2.33 7.371v13.551c0 4.859 0.14 8.988 0.45 12.379 0.33 3.371 0.89 6.309 1.7 8.781 0.84 2.43 2.01 4.258 3.53 5.539 1.49 1.219 3.44 1.852 5.82 1.852 1.71 0 3.74-0.363 6.01-1.07 2.27-0.731 3.71-1.122 4.33-1.122 1.58 0 3.04 0.629 4.41 1.942 1.35 1.258 2.04 2.918 2.04 4.879 0 2.808-1.6 5.07-4.82 6.781"/>
    <path d="m2690.2 281.91c0.54 5.449 2.12 9.559 4.71 12.371 2.6 2.789 5.92 4.168 9.95 4.168 4.26 0 7.64-1.359 10.25-4.117 2.6-2.742 4.07-6.891 4.46-12.422zm41.55-7.398c2.32 1.218 3.5 3.859 3.5 7.91 0 4.41-1.12 8.699-3.38 12.957-2.22 4.23-5.66 7.703-10.18 10.332-4.53 2.711-9.97 4.039-16.29 4.039-4.88 0-9.31-0.789-13.29-2.328-4.01-1.563-7.35-3.813-10.08-6.75-2.76-2.953-4.84-6.43-6.24-10.543-1.44-4.098-2.18-8.547-2.18-13.328 0-10.172 2.92-18.242 8.7-24.18 5.77-5.93 13.85-8.891 24.29-8.891 4.53 0 8.58 0.61 12.07 1.79 3.49 1.171 6.4 2.679 8.74 4.46 2.33 1.829 4.04 3.68 5.22 5.661 1.11 1.949 1.67 3.66 1.67 5.121 0 1.668-0.48 2.937-1.53 3.859-1.04 0.93-2.37 1.391-4.05 1.391-1.52 0-2.7-0.391-3.55-1.09-2.03-1.891-3.68-3.402-4.94-4.492-1.28-1.129-2.63-2.168-4.15-3.129-1.5-0.961-3.07-1.692-4.65-2.121-1.61-0.481-3.36-0.7-5.32-0.7-2.9 0-5.51 0.711-7.92 2.122-2.41 1.449-4.31 3.57-5.78 6.359-1.44 2.801-2.16 6.059-2.21 9.738h31.7c4.24 0 7.51 0.602 9.85 1.813"/>
    <path d="m2757.6 281.91c0.52 5.449 2.11 9.559 4.69 12.371 2.6 2.789 5.92 4.168 9.96 4.168 4.24 0 7.63-1.359 10.26-4.117 2.57-2.742 4.07-6.891 4.46-12.422zm41.54-7.398c2.31 1.218 3.52 3.859 3.52 7.91 0 4.41-1.17 8.699-3.41 12.957-2.23 4.23-5.64 7.703-10.13 10.332-4.6 2.711-10.03 4.039-16.34 4.039-4.86 0-9.31-0.789-13.3-2.328-4-1.563-7.36-3.813-10.09-6.75-2.73-2.953-4.8-6.43-6.22-10.543-1.44-4.098-2.16-8.547-2.16-13.328 0-10.172 2.9-18.242 8.67-24.18 5.8-5.93 13.86-8.891 24.29-8.891 4.54 0 8.6 0.61 12.08 1.79 3.47 1.171 6.41 2.679 8.72 4.46 2.35 1.829 4.09 3.68 5.19 5.661 1.16 1.949 1.71 3.66 1.71 5.121 0 1.668-0.47 2.937-1.5 3.859-1.05 0.93-2.39 1.391-4.07 1.391-1.51 0-2.7-0.391-3.55-1.09-2.02-1.891-3.67-3.402-4.92-4.492-1.28-1.129-2.64-2.168-4.15-3.129-1.53-0.961-3.07-1.692-4.69-2.121-1.57-0.481-3.35-0.7-5.27-0.7-2.91 0-5.56 0.711-7.95 2.122-2.39 1.449-4.31 3.57-5.76 6.359-1.43 2.801-2.17 6.059-2.21 9.738h31.7c4.22 0 7.5 0.602 9.84 1.813"/>
    <path d="m2854.5 265.62c-1.37-3.109-3.2-5.449-5.52-7.039-2.29-1.531-4.8-2.32-7.48-2.32-4.54 0-8.28 1.789-11.32 5.359-3.07 3.59-4.59 8.629-4.59 15.039 0 6.871 1.54 12.039 4.61 15.59 3.06 3.492 6.84 5.262 11.3 5.262 2.82 0 5.4-0.832 7.7-2.473 2.29-1.629 4.11-3.98 5.42-7.047 1.3-3.062 1.96-6.742 1.96-11.012 0-4.429-0.7-8.21-2.08-11.359zm4.77 40.039c-4.2 2.559-8.83 3.86-13.8 3.86-4.14 0-7.89-0.899-11.13-2.661-3.31-1.769-6.49-4.539-9.53-8.289v1.961c0 2.961-0.71 5.18-2.17 6.758-1.44 1.57-3.29 2.352-5.61 2.352s-4.18-0.782-5.53-2.289c-1.32-1.543-2-3.813-2-6.911v-69.949c0-3.551 0.52-6.191 1.47-8.07 1.01-1.82 3-2.742 6.06-2.742 5.18 0 7.78 3.59 7.78 10.679v24.34c2.87-3.59 5.86-6.347 9.01-8.168 3.13-1.871 7.04-2.801 11.65-2.801 3.86 0 7.42 0.762 10.8 2.282 3.34 1.519 6.22 3.718 8.68 6.527 2.45 2.832 4.41 6.32 5.8 10.5 1.4 4.191 2.1 8.781 2.1 13.762 0 6.758-1.22 12.597-3.66 17.57-2.44 4.949-5.73 8.711-9.92 11.289"/>
    <path d="m2889 309.64c-2.38 0-4.27-0.801-5.8-2.45-1.45-1.621-2.21-4.031-2.21-7.222v-46.418c0-3.121 0.76-5.539 2.21-7.281 1.53-1.7 3.42-2.54 5.8-2.54s4.32 0.821 5.88 2.508c1.55 1.641 2.32 4.102 2.32 7.313v46.89c0 2.86-0.77 5.129-2.32 6.75-1.56 1.649-3.5 2.45-5.88 2.45"/>
    <path d="m2889.2 333.04c-2.17 0-4.07-0.758-5.71-2.23-1.66-1.489-2.47-3.387-2.47-5.68 0-2.527 0.8-4.469 2.42-5.859 1.58-1.379 3.49-2.09 5.76-2.09 2.2 0 4.08 0.711 5.66 2.101 1.58 1.391 2.37 3.348 2.37 5.848 0 2.57-0.82 4.543-2.44 5.91-1.62 1.32-3.46 2-5.59 2"/>
    <path d="m2962.6 259.34-16.62 26.14 8.6 7.879c4.39 3.95 6.59 7.153 6.59 9.512 0 1.918-0.68 3.551-2 4.84-1.38 1.269-3.06 1.93-5.09 1.93-1.69 0-3.12-0.442-4.31-1.309-1.21-0.863-2.9-2.512-5.17-4.863l-18.22-19.129v39.32c0 3.289-0.74 5.82-2.21 7.512-1.47 1.707-3.44 2.566-5.93 2.566-2.56 0-4.57-0.929-5.95-2.828-1.36-1.89-2.07-4.621-2.07-8.199v-69.141c0-3.23 0.73-5.691 2.14-7.332 1.41-1.687 3.39-2.508 5.88-2.508 2.13 0 4.06 0.84 5.67 2.54 1.64 1.679 2.47 4.07 2.47 7.191v12.898l8.8 8.301 14.27-23.531c1.82-2.777 3.29-4.707 4.36-5.797 1.06-1.09 2.61-1.602 4.58-1.602 2.26 0 4.13 0.731 5.54 2.219 1.41 1.512 2.13 3.5 2.13 6.09 0 0.891-0.29 1.902-0.82 2.883-0.52 1.019-1.43 2.457-2.64 4.418"/>
    <path d="m2984.5 261.6c-2.5 0-4.58-0.872-6.29-2.614-1.71-1.726-2.57-3.808-2.57-6.226 0-2.864 0.91-5.09 2.68-6.653 1.8-1.589 3.9-2.379 6.34-2.379 2.37 0 4.44 0.79 6.24 2.411 1.74 1.57 2.64 3.8 2.64 6.621 0 2.437-0.9 4.539-2.64 6.258-1.8 1.71-3.91 2.582-6.4 2.582"/>
    <path d="m3058.4 270.87c-1.66 0-3.08-0.539-4.22-1.562-1.13-1.039-2.19-2.45-3.18-4.27-1.77-3.098-3.81-5.379-6.16-6.898-2.31-1.493-5.09-2.243-8.34-2.243-2.41 0-4.63 0.454-6.66 1.403-2.02 0.941-3.73 2.301-5.16 4.101-1.44 1.789-2.52 3.969-3.25 6.52-0.75 2.558-1.15 5.367-1.15 8.418 0 6.461 1.47 11.609 4.4 15.332 2.93 3.75 6.82 5.617 11.58 5.617 3.33 0 6.07-0.75 8.2-2.269 2.19-1.481 4.24-3.75 6.23-6.739 1.09-1.582 2.09-2.691 2.99-3.39 0.9-0.68 2.01-1.039 3.38-1.039 2.02 0 3.77 0.679 5.25 2.027 1.43 1.351 2.13 3 2.13 4.91 0 1.922-0.62 3.981-1.92 6.172-1.27 2.18-3.13 4.238-5.56 6.199-2.45 1.93-5.4 3.531-8.9 4.75-3.53 1.231-7.37 1.84-11.56 1.84-6.74 0-12.6-1.391-17.48-4.18-4.85-2.8-8.58-6.738-11.13-11.84-2.59-5.109-3.87-10.98-3.87-17.648 0-9.812 2.82-17.641 8.41-23.492 5.63-5.82 13.45-8.758 23.49-8.758 4.69 0 8.93 0.648 12.68 1.918 3.77 1.25 6.88 2.941 9.35 5.02 2.48 2.07 4.34 4.25 5.53 6.562 1.22 2.289 1.82 4.457 1.82 6.457 0 1.691-0.67 3.313-1.99 4.813-1.28 1.5-2.93 2.269-4.91 2.269"/>
    <path d="m3114.6 261.35c-2.9-3.723-6.82-5.582-11.71-5.582-3.24 0-6.04 0.859-8.46 2.531-2.4 1.679-4.23 4.09-5.53 7.289-1.3 3.16-1.94 6.84-1.94 11.082 0 4.289 0.67 8.027 1.98 11.238s3.14 5.629 5.55 7.281c2.43 1.629 5.22 2.461 8.4 2.461 4.89 0 8.81-1.832 11.71-5.55 2.89-3.68 4.36-8.821 4.36-15.43 0-6.5-1.47-11.633-4.36-15.32zm11.91 39.16c-2.88 2.898-6.27 5.168-10.26 6.738-4 1.609-8.47 2.391-13.36 2.391-4.82 0-9.24-0.782-13.26-2.352-3.98-1.578-7.37-3.789-10.2-6.68-2.81-2.89-4.98-6.367-6.49-10.449-1.45-4.09-2.24-8.578-2.24-13.488 0-4.852 0.77-9.301 2.2-13.32 1.52-4.012 3.68-7.5 6.56-10.481 2.86-2.922 6.27-5.199 10.17-6.762 3.93-1.589 8.35-2.39 13.26-2.39 4.92 0 9.37 0.801 13.36 2.34 3.94 1.582 7.35 3.82 10.2 6.75 2.86 2.91 5.01 6.421 6.56 10.5 1.45 4.082 2.22 8.55 2.22 13.363 0 4.879-0.76 9.32-2.21 13.387-1.49 4.011-3.63 7.48-6.51 10.453"/>
    <path d="m3225.7 306.9c-3.2 1.723-7.05 2.622-11.46 2.622-3.81 0-7.26-0.809-10.38-2.411-3.14-1.609-6.07-4.078-8.82-7.379-1.91 3.262-4.31 5.719-7.25 7.352-2.92 1.617-6.41 2.438-10.48 2.438-3.94 0-7.48-0.79-10.7-2.411-3.19-1.558-6.2-4.027-9.03-7.379v1.532c0 2.617-0.73 4.668-2.22 6.16-1.49 1.449-3.34 2.219-5.56 2.219-2.27 0-4.13-0.782-5.56-2.391-1.4-1.57-2.1-3.891-2.1-6.949v-46.352c0-3.359 0.78-5.918 2.35-7.648 1.56-1.711 3.58-2.582 6.05-2.582 2.48 0 4.47 0.871 6.02 2.582 1.5 1.73 2.27 4.289 2.27 7.648v21.883c0 6.828 0.86 12.059 2.53 15.656 1.69 3.703 5.16 5.504 10.48 5.504 2.63 0 4.59-0.711 5.82-2.203 1.21-1.41 1.97-3.301 2.25-5.508 0.28-2.261 0.4-5.441 0.4-9.519v-25.813c0-3.418 0.78-5.937 2.33-7.679 1.48-1.7 3.49-2.551 5.94-2.551 2.54 0 4.55 0.851 6.11 2.551 1.56 1.742 2.3 4.261 2.3 7.679v21.531c0 6.942 0.63 11.782 1.78 14.52 1.09 2.102 2.59 3.84 4.5 5.082 1.93 1.25 3.96 1.91 6.1 1.91 2.63 0 4.62-0.711 5.95-2.152 1.28-1.41 2.09-3.18 2.39-5.281 0.29-2.098 0.43-4.86 0.43-8.36v-27.25c0-3.359 0.79-5.918 2.35-7.648 1.57-1.711 3.56-2.582 6.03-2.582 2.52 0 4.58 0.851 6.12 2.551 1.54 1.742 2.29 4.261 2.29 7.679v31.633c0 6.289-0.68 10.898-2.06 13.848-1.58 3.23-3.97 5.73-7.17 7.468"/>
    <path d="m2442.7 280.6-0.01 0.097 0.01-0.097"/>
    <path d="m2443.6 275.42h0.01c-0.3 1.457-0.55 2.937-0.73 4.367 0.18-1.449 0.43-2.918 0.72-4.367"/>
    <path d="m2448.9 260.37-0.11 0.219 0.11-0.219"/>
    <path d="m2448.4 261.38-0.41 0.84 0.41-0.84"/>
    <path d="m2445.1 269.62c0.79-2.5 1.75-4.922 2.85-7.242-1.13 2.371-2.06 4.801-2.84 7.242h-0.01"/>
    <path d="m2497.4 348.22-0.76 2.59c2.99 0.64 5.24 3.293 5.24 6.472 0 3.629-2.97 6.59-6.61 6.59s-6.6-2.961-6.6-6.59c0-3.179 2.25-5.832 5.23-6.472l0.84-2.887c-10.22-1.41-18.34-5.391-18.34-5.391l1.44-4.41c6.17 2.07 11.53 3.32 16.39 3.828 4.76 0.512 8.34 0.742 11.26 0.742 3.13 0 5.45-0.261 8.09-0.699l0.76 4.77s-7.33 2.238-16.94 1.457"/>
    <path d="m2444.5 323.15c-0.17-0.238-4.96-4.648-8.75-12.796l-0.57 0.738c-1.13 1.242-2.72 1.879-4.73 1.851h-0.1c-1.24 0-2.1 0.411-2.66 0.918 0.56 0.7 0.89 1.602 0.89 2.582 0 2.297-1.87 4.18-4.19 4.18-2.3 0-4.17-1.883-4.17-4.18 0-2.32 1.87-4.171 4.17-4.171l1.05 0.109c1.03-1.129 2.66-2.129 5.04-2.078 1.24 8e-3 2.14-0.313 2.74-0.969l1-2.672-0.02-0.039c-2.72-7.43-1.94-16.68-1.94-16.68l6.6-0.25c0.14 3.36 0.62 9.258 2.33 13.918 3.28 9.071 7.41 14.731 7.57 14.961l0.04 0.051 0.71 0.891-1.96 1.418-3.05 2.218"/>
    <path d="m2562.9 337.16c-2.31 0-4.19-1.871-4.19-4.168l0.15-1.043c-1.15-1.039-2.14-2.668-2.1-5.07 0.02-1.231-0.31-2.109-0.97-2.719l-1.85-0.879c-4.92 6.891-10.97 11.09-10.97 11.09l-4.74-5.082c3.59-3.258 7.25-7.34 10.8-12.43 2.46-3.527 4.99-8.07 7.1-12.589l6.4 3.031s-2.92 7.219-7.03 13.699l2.06 1.199c1.25 1.133 1.87 2.723 1.83 4.731-0.01 1.3 0.41 2.179 0.93 2.761 0.71-0.543 1.6-0.89 2.58-0.89 2.31 0 4.18 1.871 4.18 4.191 0 2.297-1.87 4.168-4.18 4.168"/>
    <path d="m2546.3 279.66c-8.8-4.289-23.3-9.961-42.37-12.621-7.49-1.039-14.74-1.418-21.42-1.418-8.69 0-16.37 0.641-22.27 1.391-6.72 0.847-11.97 1.89-15.2 2.609 0.78-2.441 1.71-4.871 2.84-7.242l0.08-0.16 0.41-0.84 0.41-0.789 0.11-0.219c1.89-3.562 4.16-6.832 6.75-9.68 8.99-9.839 18.16-11.382 18.25-11.402l0.14-0.019 0.13-0.051c0.09-0.028 8.22-2.649 20.57-2.649 12.15 0 24.09 2.442 35.45 7.289 8.42 4.301 16.39 10.852 20.34 16.68 3.04 4.52 5.26 9.332 6.56 14.332 0.69 2.668 1.24 6.93 0.92 11.41-2.48-1.672-6.4-4.039-11.7-6.621"/>
    <path d="m2528.3 298.87c-6 0-10.88 4.879-10.88 10.899 0 6.011 4.88 10.878 10.88 10.878 6.01 0 10.9-4.867 10.9-10.878 0-6.02-4.89-10.899-10.9-10.899zm-51.49-12.973c-9.71 0-17.6 7.864-17.6 17.594 0 9.707 7.89 17.59 17.6 17.59 9.72 0 17.6-7.883 17.6-17.59 0-9.73-7.88-17.594-17.6-17.594zm36.43 52.582c-2.64 0.442-4.76 0.68-7.77 0.68-2.79 0-6.26-0.219-10.88-0.699-4.65-0.492-9.83-1.711-15.83-3.731-8.43-2.832-16.04-7.25-22.04-12.8l-0.2-0.188c-0.89-0.812-2.75-2.543-4.88-5.262-0.26-0.371-4.08-5.781-7.09-14.07-2.26-6.219-2.17-15.269-2.17-15.371v-0.019c0-2.122 0.13-4.231 0.36-6.321l0.01-0.097 0.1-0.813c0.18-1.43 0.43-2.91 0.74-4.367 4.37-1.121 30.48-7.211 59.66-3.141 18.28 2.539 32.18 7.938 40.61 12.039 7.01 3.391 11.51 6.469 13.25 7.731-1.74 6.429-6.51 16.5-10.89 22.789-12.53 17.898-26.04 22.492-32.98 23.64"/>
    <path d="m8997.4 280.6-0.01 0.097 0.01-0.097"/>
    <path d="m8998.2 275.42h0.01c-0.3 1.457-0.54 2.937-0.73 4.367 0.19-1.449 0.43-2.918 0.72-4.367"/>
    <path d="m9003.6 260.37-0.1 0.219 0.1-0.219"/>
    <path d="m9003.1 261.38-0.41 0.84 0.41-0.84"/>
    <path d="m8999.7 269.62c0.79-2.5 1.75-4.922 2.85-7.242-1.12 2.371-2.06 4.801-2.83 7.242h-0.02"/>
   </g>
  </g>
 </g>
</svg>
